<?xml version="1.0" encoding="utf-8"?>
<!-- Generator: Adobe Illustrator 27.8.1, SVG Export Plug-In . SVG Version: 6.00 Build 0)  -->
<svg version="1.1" id="Слой_1" xmlns="http://www.w3.org/2000/svg" xmlns:xlink="http://www.w3.org/1999/xlink" x="0px" y="0px"
	 viewBox="0 0 400 400" style="enable-background:new 0 0 400 400;" xml:space="preserve">
<style type="text/css">
	.st0{fill:#561877;}
</style>
<g>
	<g>
		<path class="st0" d="M26.9,194.9c-4.9-2.8-8.7-6.7-11.5-11.7c-2.8-5-4.1-10.7-4.1-17.1s1.4-12.1,4.1-17.1c2.7-5,6.5-8.9,11.4-11.7
			c4.9-2.8,10.4-4.2,16.5-4.2c7.3,0,13.6,1.9,19.1,5.7c5.5,3.8,9.2,8.9,11.3,15.1h-6c-2-4.8-5.1-8.5-9.3-11.2c-4.2-2.7-9.1-4-14.8-4
			c-5.2,0-9.8,1.2-13.9,3.5c-4,2.3-7.2,5.5-9.4,9.7c-2.2,4.2-3.4,8.9-3.4,14.3c0,5.3,1.1,10.1,3.4,14.3c2.2,4.2,5.4,7.4,9.4,9.7
			c4,2.3,8.7,3.5,13.9,3.5c4.9,0,9.2-1,13-3c3.8-2,6.9-4.9,9.1-8.5c2.3-3.6,3.6-7.7,4-12.3H41.5v-5.3h34.1
			c0.1,6.7-1.2,12.6-3.9,17.9c-2.7,5.2-6.4,9.4-11.3,12.3c-4.9,3-10.5,4.5-16.9,4.5C37.4,199.2,31.8,197.7,26.9,194.9z"/>
		<path class="st0" d="M91.5,134.3h23.6c4.2,0,8,0.8,11.1,2.5c3.2,1.6,5.7,3.9,7.4,6.9c1.8,3,2.6,6.5,2.6,10.5c0,5.2-1.5,9.6-4.4,13
			s-6.9,5.6-11.9,6.5l17.3,24.4h-6.6L113.5,174H97.1V198h-5.6V134.3z M114.5,168.8c5,0,9-1.3,11.8-3.9c2.8-2.6,4.3-6.2,4.3-10.7
			c0-4.5-1.4-8-4.3-10.6c-2.9-2.6-6.8-3.9-11.8-3.9H97.1v29.2H114.5z"/>
		<path class="st0" d="M170.5,134.3h5.3l26.4,63.7h-5.8l-6.6-16h-33.1l-6.6,16h-5.9L170.5,134.3z M187.6,176.9l-14.5-35l-14.4,35
			H187.6z"/>
		<path class="st0" d="M214.5,134.3h20.2c7.4,0,13.2,1.8,17.3,5.5c4.1,3.7,6.2,8.8,6.2,15.4c0,6.6-2.1,11.8-6.2,15.4
			c-4.1,3.7-9.9,5.5-17.3,5.5h-14.7V198h-5.6V134.3z M234.6,171c5.9,0,10.4-1.3,13.5-4c3-2.6,4.6-6.6,4.6-11.8
			c0-5.2-1.5-9.1-4.6-11.8c-3-2.6-7.5-4-13.5-4h-14.6V171H234.6z"/>
		<path class="st0" d="M272.8,134.3h37.5v5.2h-31.9v23.5h29.6v5.1h-29.6v24.8h32.9v5.2h-38.5V134.3z"/>
	</g>
	<g>
		<g>
			<path class="st0" d="M182.7,253.5c-2.3-1.2-4.2-2.9-5.7-5v18.5h-3.6v-44.4h3l0.4,6.4c1.4-2.3,3.3-4,5.7-5.3c2.4-1.3,5-1.9,8-1.9
				c3.2,0,6,0.7,8.5,2.2c2.5,1.4,4.4,3.4,5.8,6c1.4,2.5,2.1,5.4,2.1,8.6s-0.7,6.1-2.1,8.7c-1.4,2.6-3.3,4.6-5.8,6
				c-2.5,1.4-5.3,2.2-8.5,2.2C187.7,255.3,185.1,254.7,182.7,253.5z M178.6,245.4c1.1,2,2.7,3.6,4.7,4.7c2,1.1,4.3,1.7,6.9,1.7
				s4.9-0.6,6.9-1.7c2-1.1,3.5-2.7,4.6-4.7c1.1-2,1.7-4.3,1.7-6.9c0-2.6-0.6-4.9-1.7-6.9s-2.7-3.6-4.6-4.7c-2-1.1-4.3-1.7-6.9-1.7
				s-4.9,0.6-6.9,1.7c-2,1.1-3.6,2.7-4.7,4.7s-1.7,4.3-1.7,6.9C176.9,241.1,177.5,243.4,178.6,245.4z"/>
			<path class="st0" d="M217.7,252.4c-2.2-1.7-3.3-4-3.3-7c0-2.8,1-5.1,3-6.8c2-1.7,4.6-2.5,7.9-2.5h14.1v-2.3
				c0-2.7-0.9-4.8-2.7-6.4c-1.8-1.6-4.2-2.4-7.2-2.4c-2.4,0-4.5,0.6-6.3,1.7c-1.8,1.1-3,2.7-3.7,4.6h-3.7c0.8-3,2.4-5.3,4.8-7.1
				c2.4-1.7,5.3-2.6,8.7-2.6c2.6,0,5,0.5,7,1.5c2,1,3.6,2.4,4.8,4.2c1.1,1.8,1.7,3.9,1.7,6.3v20.8h-3l-0.4-5.5
				c-1.4,1.9-3.2,3.4-5.5,4.5c-2.3,1-4.8,1.5-7.7,1.5C222.9,255,219.9,254.2,217.7,252.4z M220.4,250.1c1.5,1.2,3.6,1.7,6.3,1.7
				c2.4,0,4.6-0.5,6.6-1.4c2-0.9,3.5-2.3,4.6-4c1.1-1.7,1.7-3.6,1.7-5.7v-1.4h-14.1c-2.2,0-4,0.6-5.4,1.7c-1.4,1.1-2.1,2.6-2.1,4.4
				C218.1,247.4,218.9,248.9,220.4,250.1z"/>
			<path class="st0" d="M260.3,253.2c-2.5-1.4-4.4-3.4-5.8-6s-2.1-5.4-2.1-8.7c0-3.3,0.7-6.2,2.1-8.7s3.3-4.5,5.8-5.9
				c2.5-1.4,5.3-2.1,8.5-2.1c3.8,0,7.1,1,10,3.1c2.9,2.1,4.8,4.9,5.7,8.3h-3.7c-1-2.5-2.6-4.5-4.7-5.9c-2.1-1.4-4.6-2.1-7.3-2.1
				c-2.5,0-4.7,0.6-6.6,1.7s-3.4,2.7-4.5,4.7c-1.1,2-1.6,4.3-1.6,6.9s0.5,4.9,1.6,6.9c1.1,2,2.6,3.6,4.5,4.7
				c1.9,1.1,4.2,1.7,6.6,1.7c2.9,0,5.5-0.8,7.7-2.3c2.2-1.5,3.7-3.6,4.6-6.3h3.8c-1.1,3.8-3,6.7-5.9,8.8c-2.9,2.1-6.2,3.2-10.2,3.2
				C265.6,255.3,262.8,254.6,260.3,253.2z"/>
			<path class="st0" d="M295.9,252.5c-2.4-1.9-3.7-4.4-3.8-7.7h3.5c0.2,2.3,1.2,4,2.9,5.3c1.7,1.3,4.1,1.9,7.2,1.9
				c2.8,0,5-0.5,6.6-1.5c1.6-1,2.4-2.4,2.4-4.2c0-1.7-0.8-3.1-2.4-4.1c-1.6-1.1-4.1-1.9-7.5-2.4c-4.2-0.7-7.2-1.8-9.2-3.3
				s-2.9-3.5-2.9-6c0-2.7,1.1-4.9,3.3-6.4c2.2-1.6,5.1-2.4,8.9-2.4c3.8,0,6.8,0.9,9.1,2.6c2.3,1.7,3.5,4.1,3.7,7.2h-3.6
				c-0.2-2.1-1-3.7-2.6-4.8c-1.6-1.1-3.8-1.7-6.6-1.7c-2.6,0-4.7,0.5-6.3,1.5c-1.5,1-2.3,2.4-2.3,4.1c0,1.6,0.7,2.8,2.2,3.8
				c1.5,1,4,1.8,7.6,2.4c8.1,1.5,12.1,4.7,12.1,9.6c0,2.7-1.1,4.8-3.4,6.5s-5.4,2.4-9.2,2.4C301.6,255.3,298.4,254.4,295.9,252.5z"
				/>
		</g>
	</g>
	<g>
		<g>
			<path class="st0" d="M366.1,199c-3.9,0.9-7.6,0.7-11-0.5c-3.4-1.2-6.4-3.4-9-6.6l4.4-3.3c3,3.6,6.6,5.4,10.9,5.5
				c4.3,0.1,8.7-1.6,13.1-4.9c4.2-3.1,6.8-6.5,8-10c1.1-3.5,0.6-6.8-1.6-9.8c-2-2.7-4.8-4-8.3-4c-3.5,0-8.2,1.4-14.2,4.1
				c-7.4,3.3-13.4,4.8-17.9,4.6c-4.5-0.2-8.2-2.2-11-6c-3.1-4.1-4-8.6-2.7-13.4c1.3-4.8,4.6-9.2,10-13.3c5.6-4.2,11.1-6.2,16.3-5.9
				c5.3,0.3,9.8,2.8,13.7,7.6l-4.4,3.3c-2.9-3.4-6.3-5.2-10.2-5.4c-3.9-0.1-8,1.4-12.3,4.6c-4.1,3.1-6.6,6.3-7.7,9.7
				c-1,3.4-0.5,6.5,1.6,9.4c1.9,2.6,4.6,3.9,8.1,3.9c3.5,0,8.3-1.4,14.4-4.1c7.5-3.3,13.4-4.8,18-4.5c4.5,0.3,8.2,2.3,10.9,6
				c3.2,4.3,4.1,8.9,2.7,13.8c-1.4,4.9-4.8,9.5-10.4,13.6C373.8,196.3,370,198.2,366.1,199z"/>
		</g>
	</g>
	<g>
		<circle class="st0" cx="336.2" cy="217.4" r="8.8"/>
		<circle class="st0" cx="347.1" cy="235.6" r="8.8"/>
		<circle class="st0" cx="368.9" cy="235.6" r="8.8"/>
		<circle class="st0" cx="358" cy="253.8" r="8.8"/>
		<circle class="st0" cx="358" cy="217.4" r="8.8"/>
		<circle class="st0" cx="379.9" cy="217.4" r="8.8"/>
	</g>
</g>
</svg>
