<svg width="91" height="32" viewBox="0 0 91 32" fill="none" xmlns="http://www.w3.org/2000/svg">
<path d="M3.72816 14.7693C2.55714 14.1001 1.649 13.1681 0.979838 11.9731C0.31068 10.7782 0 9.41601 0 7.8865C0 6.357 0.334579 4.99478 0.979838 3.79986C1.6251 2.60493 2.53324 1.67289 3.70427 1.00374C4.87529 0.334578 6.18971 0 7.64752 0C9.39211 0 10.8977 0.454071 12.2121 1.36221C13.5265 2.27036 14.4108 3.48918 14.9127 4.97088H13.4787C13.0008 3.82376 12.2599 2.93951 11.2562 2.29425C10.2525 1.64899 9.08143 1.33831 7.71921 1.33831C6.47649 1.33831 5.37716 1.6251 4.39732 2.17476C3.44138 2.72443 2.67663 3.48918 2.15086 4.49291C1.6251 5.49665 1.33832 6.61988 1.33832 7.9104C1.33832 9.17702 1.6012 10.3241 2.15086 11.3279C2.67663 12.3316 3.44138 13.0964 4.39732 13.646C5.35326 14.1957 6.47649 14.4825 7.71921 14.4825C8.89024 14.4825 9.91787 14.2435 10.826 13.7655C11.7342 13.2876 12.475 12.5945 13.0008 11.7342C13.5504 10.8738 13.8611 9.89397 13.9567 8.79464H7.21734V7.52803H15.3667C15.3906 9.12922 15.0799 10.5392 14.4347 11.8059C13.7894 13.0486 12.9052 14.0523 11.7342 14.7454C10.5631 15.4623 9.22482 15.8208 7.69531 15.8208C6.23751 15.7969 4.89919 15.4384 3.72816 14.7693Z" fill="#561877"/>
<path d="M19.167 0.286743H24.807C25.8108 0.286743 26.7189 0.477931 27.4598 0.884205C28.2245 1.26658 28.822 1.81625 29.2283 2.5332C29.6584 3.25015 29.8496 4.0866 29.8496 5.04254C29.8496 6.28526 29.4911 7.3368 28.7981 8.14935C28.105 8.96189 27.1491 9.48766 25.9542 9.70275L30.0886 15.534H28.5113L24.4247 9.77444H20.5053V15.5101H19.167V0.286743ZM24.6636 8.53172C25.8586 8.53172 26.8145 8.22104 27.4837 7.59968C28.1528 6.97832 28.5113 6.11797 28.5113 5.04254C28.5113 3.96711 28.1767 3.13066 27.4837 2.5093C26.7906 1.88794 25.8586 1.57726 24.6636 1.57726H20.5053V8.55562H24.6636V8.53172Z" fill="#561877"/>
<path d="M38.046 0.286743H39.3127L45.6219 15.5101H44.2358L42.6585 11.6863H34.7481L33.1708 15.5101H31.7607L38.046 0.286743ZM42.1327 10.4675L38.6674 2.10303L35.226 10.4675H42.1327Z" fill="#561877"/>
<path d="M48.562 0.286743H53.3895C55.158 0.286743 56.5441 0.716916 57.5239 1.60116C58.5038 2.4854 59.0056 3.70423 59.0056 5.28153C59.0056 6.85883 58.5038 8.10155 57.5239 8.9619C56.5441 9.84614 55.158 10.2763 53.3895 10.2763H49.8764V15.5101H48.5381V0.286743H48.562ZM53.3656 9.05749C54.7756 9.05749 55.851 8.74681 56.5919 8.10155C57.3088 7.48019 57.6912 6.52425 57.6912 5.28153C57.6912 4.03881 57.3327 3.10676 56.5919 2.4615C55.8749 1.84014 54.7995 1.50556 53.3656 1.50556H49.8764V9.05749H53.3656Z" fill="#561877"/>
<path d="M62.4951 0.286743H71.4571V1.52946H63.8334V7.14561H70.9074V8.36443H63.8334V14.2913H71.696V15.534H62.4951V0.286743Z" fill="#561877"/>
<path d="M40.9618 28.7736C40.4122 28.4868 39.9581 28.0805 39.5996 27.5787V31.9999H38.7393V21.3889H39.4562L39.5518 22.9184C39.8864 22.3688 40.3405 21.9625 40.914 21.6518C41.4876 21.3411 42.1089 21.1978 42.8259 21.1978C43.5907 21.1978 44.2598 21.365 44.8573 21.7235C45.4547 22.0581 45.9088 22.5361 46.2434 23.1574C46.578 23.7549 46.7453 24.4479 46.7453 25.2127C46.7453 25.9775 46.578 26.6705 46.2434 27.2919C45.9088 27.9132 45.4547 28.3912 44.8573 28.7258C44.2598 29.0604 43.5907 29.2515 42.8259 29.2515C42.1567 29.2037 41.5354 29.0604 40.9618 28.7736ZM39.982 26.8378C40.2449 27.3158 40.6272 27.6981 41.1052 27.961C41.5832 28.2239 42.1328 28.3673 42.7542 28.3673C43.3756 28.3673 43.9252 28.2239 44.4032 27.961C44.8812 27.6981 45.2396 27.3158 45.5025 26.8378C45.7654 26.3598 45.9088 25.8102 45.9088 25.1888C45.9088 24.5674 45.7654 24.0178 45.5025 23.5398C45.2396 23.0618 44.8573 22.6795 44.4032 22.4166C43.9252 22.1537 43.3756 22.0103 42.7542 22.0103C42.1328 22.0103 41.5832 22.1537 41.1052 22.4166C40.6272 22.6795 40.2449 23.0618 39.982 23.5398C39.7191 24.0178 39.5757 24.5674 39.5757 25.1888C39.5757 25.8102 39.7191 26.3598 39.982 26.8378Z" fill="#561877"/>
<path d="M49.3267 28.5109C48.801 28.1046 48.5381 27.5549 48.5381 26.838C48.5381 26.1688 48.7771 25.6192 49.255 25.2129C49.733 24.8066 50.3544 24.6154 51.143 24.6154H54.5127V24.0658C54.5127 23.4205 54.2976 22.9186 53.8675 22.5363C53.4373 22.1539 52.8637 21.9627 52.1468 21.9627C51.5732 21.9627 51.0713 22.1061 50.6412 22.369C50.211 22.6319 49.9242 23.0142 49.7569 23.4683H48.8727C49.0639 22.7513 49.4462 22.2017 50.0198 21.7715C50.5934 21.3652 51.2864 21.1501 52.099 21.1501C52.7203 21.1501 53.2939 21.2696 53.7719 21.5086C54.2498 21.7476 54.6322 22.0822 54.919 22.5124C55.1819 22.9425 55.3253 23.4444 55.3253 24.018V28.9888H54.6083L54.5127 27.6744C54.1781 28.1285 53.748 28.487 53.1983 28.7499C52.6486 28.9888 52.0512 29.1083 51.3581 29.1083C50.5695 29.1322 49.8525 28.9411 49.3267 28.5109ZM49.972 27.9612C50.3305 28.248 50.8323 28.3675 51.4776 28.3675C52.0512 28.3675 52.5769 28.248 53.0549 28.0329C53.5329 27.8178 53.8913 27.4832 54.1542 27.077C54.4171 26.6707 54.5605 26.2166 54.5605 25.7148V25.3802H51.1908C50.6651 25.3802 50.2349 25.5236 49.9003 25.7865C49.5657 26.0493 49.3984 26.4078 49.3984 26.838C49.4223 27.316 49.6135 27.6744 49.972 27.9612Z" fill="#561877"/>
<path d="M59.5081 28.7021C58.9106 28.3675 58.4566 27.8896 58.122 27.2682C57.7874 26.6469 57.6201 25.9777 57.6201 25.189C57.6201 24.4004 57.7874 23.7073 58.122 23.1099C58.4566 22.5124 58.9106 22.0344 59.5081 21.6999C60.1056 21.3653 60.7747 21.198 61.5395 21.198C62.4476 21.198 63.2363 21.437 63.9293 21.9388C64.6224 22.4407 65.0764 23.1099 65.2915 23.9224H64.4073C64.1683 23.325 63.7859 22.847 63.2841 22.5124C62.7822 22.1778 62.1847 22.0105 61.5395 22.0105C60.942 22.0105 60.4162 22.1539 59.9622 22.4168C59.5081 22.6797 59.1496 23.0621 58.8867 23.5401C58.6239 24.018 58.5044 24.5677 58.5044 25.189C58.5044 25.8104 58.6239 26.3601 58.8867 26.838C59.1496 27.316 59.5081 27.6984 59.9622 27.9613C60.4162 28.2242 60.9659 28.3675 61.5395 28.3675C62.2325 28.3675 62.8539 28.1764 63.3797 27.8179C63.9054 27.4594 64.2639 26.9575 64.479 26.3123H65.3871C65.1242 27.2204 64.6702 27.9135 63.9771 28.4153C63.2841 28.9172 62.4954 29.1801 61.5395 29.1801C60.7747 29.204 60.1056 29.0367 59.5081 28.7021Z" fill="#561877"/>
<path d="M68.0156 28.5348C67.442 28.0807 67.1313 27.4833 67.1074 26.6946H67.9439C67.9917 27.2443 68.2306 27.6506 68.6369 27.9612C69.0432 28.2719 69.6168 28.4153 70.3576 28.4153C71.0268 28.4153 71.5525 28.2958 71.9349 28.0568C72.3173 27.8179 72.5085 27.4833 72.5085 27.0531C72.5085 26.6468 72.3173 26.3122 71.9349 26.0733C71.5525 25.8104 70.9551 25.6192 70.1425 25.4997C69.1388 25.3324 68.4218 25.0695 67.9439 24.7111C67.4659 24.3526 67.2508 23.8746 67.2508 23.2771C67.2508 22.6319 67.5137 22.1061 68.0395 21.7476C68.5652 21.3653 69.2583 21.1741 70.1664 21.1741C71.0746 21.1741 71.7915 21.3892 72.3412 21.7954C72.8909 22.2017 73.1776 22.7753 73.2254 23.5161H72.3651C72.3173 23.0143 72.1261 22.6319 71.7437 22.369C71.3614 22.1061 70.8356 21.9627 70.1664 21.9627C69.5451 21.9627 69.0432 22.0822 68.6608 22.3212C68.3023 22.5602 68.1112 22.8948 68.1112 23.301C68.1112 23.6834 68.2784 23.9702 68.6369 24.2092C68.9954 24.4482 69.5929 24.6394 70.4532 24.7827C72.389 25.1412 73.3449 25.906 73.3449 27.077C73.3449 27.7223 73.082 28.2241 72.5324 28.6304C71.9827 29.0367 71.2419 29.204 70.3337 29.204C69.3778 29.204 68.613 28.9889 68.0156 28.5348Z" fill="#561877"/>
<path d="M84.7915 15.7491C83.8595 15.9642 82.9752 15.9164 82.1627 15.6296C81.3501 15.3428 80.6332 14.817 80.0118 14.0523L81.0634 13.2636C81.7803 14.124 82.6406 14.5542 83.6683 14.5781C84.6959 14.602 85.7475 14.1957 86.799 13.407C87.8027 12.6662 88.4241 11.8536 88.7109 11.0172C88.9738 10.1807 88.8543 9.39209 88.3285 8.67514C87.8505 8.02988 87.1814 7.7192 86.3449 7.7192C85.5085 7.7192 84.3852 8.05378 82.9513 8.69904C81.1828 9.48769 79.7489 9.84616 78.6735 9.79837C77.5981 9.75057 76.7138 9.2726 76.0447 8.36446C75.3038 7.38462 75.0887 6.30919 75.3994 5.16206C75.7101 4.01493 76.4987 2.9634 77.7893 1.98356C79.1276 0.979822 80.442 0.501853 81.6847 0.573549C82.9513 0.645244 84.0268 1.24271 84.9588 2.38984L83.9073 3.17848C83.2142 2.36593 82.4017 1.93576 81.4696 1.88797C80.5376 1.86407 79.5577 2.22255 78.5301 2.9873C77.5503 3.72815 76.9528 4.4929 76.6899 5.30545C76.4509 6.118 76.5704 6.85885 77.0723 7.55191C77.5264 8.17327 78.1716 8.48395 79.0081 8.48395C79.8445 8.48395 80.9917 8.14937 82.4495 7.50411C84.2418 6.71546 85.6519 6.35698 86.7512 6.42868C87.8266 6.50037 88.7109 6.97834 89.3561 7.86259C90.1209 8.89022 90.336 9.98955 90.0014 11.1606C89.6668 12.3316 88.8543 13.4309 87.5159 14.4108C86.6317 15.1038 85.7236 15.5579 84.7915 15.7491Z" fill="#561877"/>
<path d="M77.648 22.2495C78.8095 22.2495 79.7511 21.3079 79.7511 20.1464C79.7511 18.9849 78.8095 18.0433 77.648 18.0433C76.4865 18.0433 75.5449 18.9849 75.5449 20.1464C75.5449 21.3079 76.4865 22.2495 77.648 22.2495Z" fill="#561877"/>
<path d="M80.2515 26.599C81.413 26.599 82.3546 25.6574 82.3546 24.4959C82.3546 23.3344 81.413 22.3928 80.2515 22.3928C79.09 22.3928 78.1484 23.3344 78.1484 24.4959C78.1484 25.6574 79.09 26.599 80.2515 26.599Z" fill="#561877"/>
<path d="M85.4624 26.599C86.6239 26.599 87.5655 25.6574 87.5655 24.4959C87.5655 23.3344 86.6239 22.3928 85.4624 22.3928C84.3009 22.3928 83.3594 23.3344 83.3594 24.4959C83.3594 25.6574 84.3009 26.599 85.4624 26.599Z" fill="#561877"/>
<path d="M82.857 30.9486C84.0185 30.9486 84.96 30.007 84.96 28.8455C84.96 27.684 84.0185 26.7424 82.857 26.7424C81.6955 26.7424 80.7539 27.684 80.7539 28.8455C80.7539 30.007 81.6955 30.9486 82.857 30.9486Z" fill="#561877"/>
<path d="M82.857 22.2495C84.0185 22.2495 84.96 21.3079 84.96 20.1464C84.96 18.9849 84.0185 18.0433 82.857 18.0433C81.6955 18.0433 80.7539 18.9849 80.7539 20.1464C80.7539 21.3079 81.6955 22.2495 82.857 22.2495Z" fill="#561877"/>
<path d="M88.0913 22.2495C89.2528 22.2495 90.1944 21.3079 90.1944 20.1464C90.1944 18.9849 89.2528 18.0433 88.0913 18.0433C86.9299 18.0433 85.9883 18.9849 85.9883 20.1464C85.9883 21.3079 86.9299 22.2495 88.0913 22.2495Z" fill="#561877"/>
</svg>
