<?xml version="1.0" encoding="utf-8"?>
<svg version="1.1" xmlns="http://www.w3.org/2000/svg" viewBox="320 110 80 150">
<style type="text/css">
	.st0{fill:#561877;}
</style>
<g>
	<g>
		<path class="st0" d="M366.1,199c-3.9,0.9-7.6,0.7-11-0.5c-3.4-1.2-6.4-3.4-9-6.6l4.4-3.3c3,3.6,6.6,5.4,10.9,5.5
			c4.3,0.1,8.7-1.6,13.1-4.9c4.2-3.1,6.8-6.5,8-10c1.1-3.5,0.6-6.8-1.6-9.8c-2-2.7-4.8-4-8.3-4c-3.5,0-8.2,1.4-14.2,4.1
			c-7.4,3.3-13.4,4.8-17.9,4.6c-4.5-0.2-8.2-2.2-11-6c-3.1-4.1-4-8.6-2.7-13.4c1.3-4.8,4.6-9.2,10-13.3c5.6-4.2,11.1-6.2,16.3-5.9
			c5.3,0.3,9.8,2.8,13.7,7.6l-4.4,3.3c-2.9-3.4-6.3-5.2-10.2-5.4c-3.9-0.1-8,1.4-12.3,4.6c-4.1,3.1-6.6,6.3-7.7,9.7
			c-1,3.4-0.5,6.5,1.6,9.4c1.9,2.6,4.6,3.9,8.1,3.9c3.5,0,8.3-1.4,14.4-4.1c7.5-3.3,13.4-4.8,18-4.5c4.5,0.3,8.2,2.3,10.9,6
			c3.2,4.3,4.1,8.9,2.7,13.8c-1.4,4.9-4.8,9.5-10.4,13.6C373.8,196.3,370,198.2,366.1,199z"/>
	</g>
	<g>
		<circle class="st0" cx="336.2" cy="217.4" r="8.8"/>
		<circle class="st0" cx="347.1" cy="235.6" r="8.8"/>
		<circle class="st0" cx="368.9" cy="235.6" r="8.8"/>
		<circle class="st0" cx="358" cy="253.8" r="8.8"/>
		<circle class="st0" cx="358" cy="217.4" r="8.8"/>
		<circle class="st0" cx="379.9" cy="217.4" r="8.8"/>
	</g>
</g>
</svg>
