<svg width="78" height="78" viewBox="0 0 78 78" fill="none" xmlns="http://www.w3.org/2000/svg">
<path d="M60.9541 0V0.5H62C62.3412 0.5 62.6801 0.510543 63.0156 0.532227L63.0469 0.0341797C63.7521 0.0797289 64.4447 0.171667 65.1221 0.305664L65.0254 0.794922C65.6948 0.927355 66.349 1.10273 66.9844 1.31836L67.1436 0.844727C67.809 1.07049 68.4543 1.33975 69.0771 1.64746L68.8564 2.09473C69.465 2.39538 70.0511 2.73531 70.6113 3.11035L70.8887 2.69531C71.4701 3.08454 72.0246 3.51066 72.5488 3.9707L72.2197 4.3457C72.7283 4.79207 73.2079 5.27169 73.6543 5.78027L74.0283 5.4502C74.4884 5.97435 74.9144 6.52893 75.3037 7.11035H75.3047L74.8896 7.38867C75.2647 7.9489 75.6046 8.53505 75.9053 9.14355L76.3516 8.92188C76.6593 9.54472 76.9285 10.19 77.1543 10.8555L76.6816 11.0156C76.8973 11.651 77.0726 12.3052 77.2051 12.9746L77.6934 12.877C77.8274 13.5544 77.9192 14.2469 77.9648 14.9521L77.4678 14.9844C77.4895 15.3199 77.5 15.6588 77.5 16V17.0459H78V19.1367H77.5V21.2275H78V23.3184H77.5V25.4092H78V27.5H77.5V29.5908H78V31.6816H77.5V33.7725H78V35.8633H77.5V37.9541H78V40.0459H77.5V42.1367H78V44.2275H77.5V46.3184H78V48.4092H77.5V50.5H78V52.5908H77.5V54.6816H78V56.7725H77.5V58.8633H78V60.9541H77.5V62C77.5 62.3412 77.4895 62.6801 77.4678 63.0156L77.9648 63.0469C77.9193 63.7521 77.8274 64.4446 77.6934 65.1221L77.2051 65.0254C77.0726 65.6948 76.8973 66.349 76.6816 66.9844L77.1543 67.1436C76.9285 67.809 76.6593 68.4543 76.3516 69.0771L75.9053 68.8564C75.6046 69.465 75.2647 70.0511 74.8896 70.6113L75.3037 70.8887C74.9144 71.4701 74.4884 72.0246 74.0283 72.5488L73.6543 72.2197C73.2079 72.7283 72.7283 73.2079 72.2197 73.6543L72.5488 74.0283C72.0246 74.4884 71.4701 74.9144 70.8887 75.3037L70.6113 74.8896C70.0511 75.2647 69.465 75.6046 68.8564 75.9053L69.0771 76.3516C68.4543 76.6593 67.809 76.9285 67.1436 77.1543L66.9844 76.6816C66.349 76.8973 65.6948 77.0726 65.0254 77.2051L65.1221 77.6934C64.4446 77.8274 63.7521 77.9193 63.0469 77.9648L63.0156 77.4678C62.6801 77.4895 62.3412 77.5 62 77.5H60.9541V78H58.8633V77.5H56.7725V78H54.6816V77.5H52.5908V78H50.5V77.5H48.4092V78H46.3184V77.5H44.2275V78H42.1367V77.5H40.0459V78H37.9541V77.5H35.8633V78H33.7725V77.5H31.6816V78H29.5908V77.5H27.5V78H25.4092V77.5H23.3184V78H21.2275V77.5H19.1367V78H17.0459V77.5H16C15.6588 77.5 15.3199 77.4895 14.9844 77.4678L14.9521 77.9648C14.2469 77.9192 13.5544 77.8274 12.877 77.6934L12.9746 77.2051C12.3052 77.0726 11.651 76.8973 11.0156 76.6816L10.8555 77.1543C10.19 76.9285 9.54472 76.6593 8.92188 76.3516L9.14355 75.9053C8.53504 75.6046 7.9489 75.2647 7.38867 74.8896L7.11035 75.3037C6.52893 74.9144 5.97435 74.4884 5.4502 74.0283L5.78027 73.6543C5.27169 73.2079 4.79207 72.7283 4.3457 72.2197L3.9707 72.5488C3.51066 72.0246 3.08454 71.4701 2.69531 70.8887L3.11035 70.6113C2.73531 70.0511 2.39538 69.465 2.09473 68.8564L1.64746 69.0771C1.33975 68.4543 1.07049 67.809 0.844727 67.1436L1.31836 66.9844C1.10273 66.349 0.927355 65.6948 0.794922 65.0254L0.305664 65.1221C0.171667 64.4447 0.0797289 63.7521 0.0341797 63.0469L0.532227 63.0156C0.510543 62.6801 0.5 62.3412 0.5 62V60.9541H0V58.8633H0.5V56.7725H0V54.6816H0.5V52.5908H0V50.5H0.5V48.4092H0V46.3184H0.5V44.2275H0V42.1367H0.5V40.0459H0V37.9541H0.5V35.8633H0V33.7725H0.5V31.6816H0V29.5908H0.5V27.5H0V25.4092H0.5V23.3184H0V21.2275H0.5V19.1367H0V17.0459H0.5V16C0.5 15.6588 0.510543 15.3199 0.532227 14.9844L0.0341797 14.9521C0.079771 14.2469 0.171627 13.5543 0.305664 12.877L0.794922 12.9746C0.927355 12.3052 1.10273 11.651 1.31836 11.0156L0.844727 10.8555C1.07053 10.1901 1.33972 9.54469 1.64746 8.92188L2.09473 9.14355C2.39538 8.53504 2.73531 7.9489 3.11035 7.38867L2.69531 7.11035C3.08455 6.52895 3.51065 5.97434 3.9707 5.4502L4.3457 5.78027C4.79207 5.27169 5.27169 4.79207 5.78027 4.3457L5.4502 3.9707C5.97434 3.51065 6.52895 3.08455 7.11035 2.69531L7.38867 3.11035C7.9489 2.73531 8.53504 2.39538 9.14355 2.09473L8.92188 1.64746C9.54469 1.33972 10.1901 1.07053 10.8555 0.844727L11.0156 1.31836C11.651 1.10273 12.3052 0.927355 12.9746 0.794922L12.877 0.305664C13.5543 0.171627 14.2469 0.079771 14.9521 0.0341797L14.9844 0.532227C15.3199 0.510543 15.6588 0.5 16 0.5H17.0459V0H19.1367V0.5H21.2275V0H23.3184V0.5H25.4092V0H27.5V0.5H29.5908V0H31.6816V0.5H33.7725V0H35.8633V0.5H37.9541V0H40.0459V0.5H42.1367V0H44.2275V0.5H46.3184V0H48.4092V0.5H50.5V0H52.5908V0.5H54.6816V0H56.7725V0.5H58.8633V0H60.9541Z" fill="#FBF5F5"/>
<path d="M60.9541 0V0.5H62C62.3412 0.5 62.6801 0.510543 63.0156 0.532227L63.0469 0.0341797C63.7521 0.0797289 64.4447 0.171667 65.1221 0.305664L65.0254 0.794922C65.6948 0.927355 66.349 1.10273 66.9844 1.31836L67.1436 0.844727C67.809 1.07049 68.4543 1.33975 69.0771 1.64746L68.8564 2.09473C69.465 2.39538 70.0511 2.73531 70.6113 3.11035L70.8887 2.69531C71.4701 3.08454 72.0246 3.51066 72.5488 3.9707L72.2197 4.3457C72.7283 4.79207 73.2079 5.27169 73.6543 5.78027L74.0283 5.4502C74.4884 5.97435 74.9144 6.52893 75.3037 7.11035H75.3047L74.8896 7.38867C75.2647 7.9489 75.6046 8.53505 75.9053 9.14355L76.3516 8.92188C76.6593 9.54472 76.9285 10.19 77.1543 10.8555L76.6816 11.0156C76.8973 11.651 77.0726 12.3052 77.2051 12.9746L77.6934 12.877C77.8274 13.5544 77.9192 14.2469 77.9648 14.9521L77.4678 14.9844C77.4895 15.3199 77.5 15.6588 77.5 16V17.0459H78V19.1367H77.5V21.2275H78V23.3184H77.5V25.4092H78V27.5H77.5V29.5908H78V31.6816H77.5V33.7725H78V35.8633H77.5V37.9541H78V40.0459H77.5V42.1367H78V44.2275H77.5V46.3184H78V48.4092H77.5V50.5H78V52.5908H77.5V54.6816H78V56.7725H77.5V58.8633H78V60.9541H77.5V62C77.5 62.3412 77.4895 62.6801 77.4678 63.0156L77.9648 63.0469C77.9193 63.7521 77.8274 64.4446 77.6934 65.1221L77.2051 65.0254C77.0726 65.6948 76.8973 66.349 76.6816 66.9844L77.1543 67.1436C76.9285 67.809 76.6593 68.4543 76.3516 69.0771L75.9053 68.8564C75.6046 69.465 75.2647 70.0511 74.8896 70.6113L75.3037 70.8887C74.9144 71.4701 74.4884 72.0246 74.0283 72.5488L73.6543 72.2197C73.2079 72.7283 72.7283 73.2079 72.2197 73.6543L72.5488 74.0283C72.0246 74.4884 71.4701 74.9144 70.8887 75.3037L70.6113 74.8896C70.0511 75.2647 69.465 75.6046 68.8564 75.9053L69.0771 76.3516C68.4543 76.6593 67.809 76.9285 67.1436 77.1543L66.9844 76.6816C66.349 76.8973 65.6948 77.0726 65.0254 77.2051L65.1221 77.6934C64.4446 77.8274 63.7521 77.9193 63.0469 77.9648L63.0156 77.4678C62.6801 77.4895 62.3412 77.5 62 77.5H60.9541V78H58.8633V77.5H56.7725V78H54.6816V77.5H52.5908V78H50.5V77.5H48.4092V78H46.3184V77.5H44.2275V78H42.1367V77.5H40.0459V78H37.9541V77.5H35.8633V78H33.7725V77.5H31.6816V78H29.5908V77.5H27.5V78H25.4092V77.5H23.3184V78H21.2275V77.5H19.1367V78H17.0459V77.5H16C15.6588 77.5 15.3199 77.4895 14.9844 77.4678L14.9521 77.9648C14.2469 77.9192 13.5544 77.8274 12.877 77.6934L12.9746 77.2051C12.3052 77.0726 11.651 76.8973 11.0156 76.6816L10.8555 77.1543C10.19 76.9285 9.54472 76.6593 8.92188 76.3516L9.14355 75.9053C8.53504 75.6046 7.9489 75.2647 7.38867 74.8896L7.11035 75.3037C6.52893 74.9144 5.97435 74.4884 5.4502 74.0283L5.78027 73.6543C5.27169 73.2079 4.79207 72.7283 4.3457 72.2197L3.9707 72.5488C3.51066 72.0246 3.08454 71.4701 2.69531 70.8887L3.11035 70.6113C2.73531 70.0511 2.39538 69.465 2.09473 68.8564L1.64746 69.0771C1.33975 68.4543 1.07049 67.809 0.844727 67.1436L1.31836 66.9844C1.10273 66.349 0.927355 65.6948 0.794922 65.0254L0.305664 65.1221C0.171667 64.4447 0.0797289 63.7521 0.0341797 63.0469L0.532227 63.0156C0.510543 62.6801 0.5 62.3412 0.5 62V60.9541H0V58.8633H0.5V56.7725H0V54.6816H0.5V52.5908H0V50.5H0.5V48.4092H0V46.3184H0.5V44.2275H0V42.1367H0.5V40.0459H0V37.9541H0.5V35.8633H0V33.7725H0.5V31.6816H0V29.5908H0.5V27.5H0V25.4092H0.5V23.3184H0V21.2275H0.5V19.1367H0V17.0459H0.5V16C0.5 15.6588 0.510543 15.3199 0.532227 14.9844L0.0341797 14.9521C0.079771 14.2469 0.171627 13.5543 0.305664 12.877L0.794922 12.9746C0.927355 12.3052 1.10273 11.651 1.31836 11.0156L0.844727 10.8555C1.07053 10.1901 1.33972 9.54469 1.64746 8.92188L2.09473 9.14355C2.39538 8.53504 2.73531 7.9489 3.11035 7.38867L2.69531 7.11035C3.08455 6.52895 3.51065 5.97434 3.9707 5.4502L4.3457 5.78027C4.79207 5.27169 5.27169 4.79207 5.78027 4.3457L5.4502 3.9707C5.97434 3.51065 6.52895 3.08455 7.11035 2.69531L7.38867 3.11035C7.9489 2.73531 8.53504 2.39538 9.14355 2.09473L8.92188 1.64746C9.54469 1.33972 10.1901 1.07053 10.8555 0.844727L11.0156 1.31836C11.651 1.10273 12.3052 0.927355 12.9746 0.794922L12.877 0.305664C13.5543 0.171627 14.2469 0.079771 14.9521 0.0341797L14.9844 0.532227C15.3199 0.510543 15.6588 0.5 16 0.5H17.0459V0H19.1367V0.5H21.2275V0H23.3184V0.5H25.4092V0H27.5V0.5H29.5908V0H31.6816V0.5H33.7725V0H35.8633V0.5H37.9541V0H40.0459V0.5H42.1367V0H44.2275V0.5H46.3184V0H48.4092V0.5H50.5V0H52.5908V0.5H54.6816V0H56.7725V0.5H58.8633V0H60.9541Z" stroke="#F04138" stroke-dasharray="2.05 2.05"/>
<path d="M39 45C39.34 45 39.6252 44.8848 39.8556 44.6544C40.086 44.424 40.2008 44.1392 40.2 43.8C40.1992 43.4608 40.084 43.176 39.8544 42.9456C39.6248 42.7152 39.34 42.6 39 42.6C38.66 42.6 38.3752 42.7152 38.1456 42.9456C37.916 43.176 37.8008 43.4608 37.8 43.8C37.7992 44.1392 37.9144 44.4244 38.1456 44.6556C38.3768 44.8868 38.6616 45.0016 39 45ZM39 40.2C39.34 40.2 39.6252 40.0848 39.8556 39.8544C40.086 39.624 40.2008 39.3392 40.2 39V34.2C40.2 33.86 40.0848 33.5752 39.8544 33.3456C39.624 33.116 39.3392 33.0008 39 33C38.6608 32.9992 38.376 33.1144 38.1456 33.3456C37.9152 33.5768 37.8 33.8616 37.8 34.2V39C37.8 39.34 37.9152 39.6252 38.1456 39.8556C38.376 40.086 38.6608 40.2008 39 40.2ZM39 51C37.34 51 35.78 50.6848 34.32 50.0544C32.86 49.424 31.59 48.5692 30.51 47.49C29.43 46.4108 28.5752 45.1408 27.9456 43.68C27.316 42.2192 27.0008 40.6592 27 39C26.9992 37.3408 27.3144 35.7808 27.9456 34.32C28.5768 32.8592 29.4316 31.5892 30.51 30.51C31.5884 29.4308 32.8584 28.576 34.32 27.9456C35.7816 27.3152 37.3416 27 39 27C40.6584 27 42.2184 27.3152 43.68 27.9456C45.1416 28.576 46.4116 29.4308 47.49 30.51C48.5684 31.5892 49.4236 32.8592 50.0556 34.32C50.6876 35.7808 51.0024 37.3408 51 39C50.9976 40.6592 50.6824 42.2192 50.0544 43.68C49.4264 45.1408 48.5716 46.4108 47.49 47.49C46.4084 48.5692 45.1384 49.4244 43.68 50.0556C42.2216 50.6868 40.6616 51.0016 39 51Z" fill="#F04138"/>
</svg>
