<svg width="20" height="20" viewBox="0 0 20 20" fill="currentColor" xmlns="http://www.w3.org/2000/svg">
    <path d="M13.1271 11.6623C13.6241 11.6628 14.1006 11.8605 14.4519 12.2121C14.8032 12.5637 15.0005 13.0403 15.0005 13.5373V14.0165C15.0005 14.7615 14.7338 15.4823 14.2505 16.0482C12.9421 17.5757 10.953 18.3298 8.3313 18.3298C5.70964 18.3298 3.7213 17.5757 2.4163 16.0465C1.93348 15.481 1.66814 14.7618 1.66797 14.0182V13.5365C1.66819 13.0395 1.86572 12.5629 2.21714 12.2115C2.56857 11.8601 3.04514 11.6626 3.54214 11.6623H13.1271ZM13.1271 12.9123H3.5413C3.37554 12.9123 3.21657 12.9782 3.09936 13.0954C2.98215 13.2126 2.9163 13.3716 2.9163 13.5373V14.0182C2.9163 14.464 3.0763 14.8957 3.3663 15.2348C4.41047 16.459 6.04963 17.0798 8.33047 17.0798C10.613 17.0798 12.2521 16.459 13.2996 15.2357C13.5902 14.8959 13.7498 14.4635 13.7496 14.0165V13.5365C13.7494 13.3712 13.6837 13.2127 13.5669 13.0957C13.45 12.9787 13.2925 12.9128 13.1271 12.9123ZM8.3313 1.6665C8.87848 1.6665 9.42029 1.77428 9.92582 1.98367C10.4313 2.19307 10.8907 2.49998 11.2776 2.88689C11.6645 3.2738 11.9714 3.73313 12.1808 4.23866C12.3902 4.74418 12.498 5.286 12.498 5.83317C12.498 6.38034 12.3902 6.92216 12.1808 7.42768C11.9714 7.93321 11.6645 8.39254 11.2776 8.77945C10.8907 9.16636 10.4313 9.47327 9.92582 9.68267C9.42029 9.89206 8.87848 9.99984 8.3313 9.99984C7.22623 9.99984 6.16643 9.56085 5.38502 8.77945C4.60362 7.99805 4.16464 6.93824 4.16464 5.83317C4.16464 4.7281 4.60362 3.66829 5.38502 2.88689C6.16643 2.10549 7.22623 1.6665 8.3313 1.6665ZM8.3313 2.9165C7.94828 2.9165 7.56901 2.99195 7.21514 3.13852C6.86128 3.2851 6.53974 3.49994 6.26891 3.77078C5.99807 4.04161 5.78323 4.36314 5.63665 4.71701C5.49008 5.07088 5.41464 5.45015 5.41464 5.83317C5.41464 6.21619 5.49008 6.59546 5.63665 6.94933C5.78323 7.3032 5.99807 7.62473 6.26891 7.89557C6.53974 8.1664 6.86128 8.38124 7.21514 8.52782C7.56901 8.6744 7.94828 8.74984 8.3313 8.74984C9.10485 8.74984 9.84671 8.44255 10.3937 7.89557C10.9407 7.34858 11.248 6.60672 11.248 5.83317C11.248 5.05962 10.9407 4.31776 10.3937 3.77078C9.84671 3.22379 9.10485 2.9165 8.3313 2.9165Z"/>
    <path d="M16.5 6V11M19 8.5H14" stroke="currentColor" stroke-width="1.2" stroke-linecap="round" stroke-linejoin="round"/>
</svg>
