<svg width="21" height="20" viewBox="0 0 21 20" fill="none" xmlns="http://www.w3.org/2000/svg">
    <path d="M8.43808 0H3.75058C3.61141 4.67001e-06 3.47499 0.0387306 3.35658 0.111845C3.23816 0.18496 3.14243 0.28958 3.08008 0.414L0.0800781 6.414H6.83458L8.43808 0Z" fill="url(#paint0_linear_1404_12863)"/>
    <path d="M14.166 6.414L12.5625 0H17.25C17.3892 4.67001e-06 17.5256 0.0387306 17.644 0.111845C17.7624 0.18496 17.8582 0.28958 17.9205 0.414L20.9205 6.414H14.166Z" fill="url(#paint1_linear_1404_12863)"/>
    <path d="M7.5225 0.5685C7.56299 0.406176 7.65658 0.262048 7.7884 0.159037C7.92022 0.056026 8.0827 4.62172e-05 8.25 0H12.75C12.9173 4.62172e-05 13.0798 0.056026 13.2116 0.159037C13.3434 0.262048 13.437 0.406176 13.4775 0.5685L14.9775 6.5685C14.9925 6.6285 15 6.689 15 6.75H6C6.00007 6.68881 6.00762 6.62786 6.0225 6.5685L7.5225 0.5685Z" fill="url(#paint2_linear_1404_12863)"/>
    <path d="M6.85228 6H0.28678L0.0797797 6.414C0.0149001 6.54318 -0.0112636 6.68836 0.00443739 6.83207C0.0201384 6.97577 0.0770351 7.11188 0.16828 7.224L9.91828 19.224C9.98736 19.3087 10.0741 19.3774 10.1725 19.425C10.2709 19.4727 10.3785 19.4983 10.4878 19.5C10.5972 19.5017 10.7055 19.4795 10.8054 19.435C10.9052 19.3904 10.9941 19.3245 11.0658 19.242L6.85228 6Z" fill="url(#paint3_linear_1404_12863)"/>
    <path d="M9.93457 19.242L14.1481 6H20.7136L20.9206 6.414C20.9854 6.54318 21.0116 6.68836 20.9959 6.83207C20.9802 6.97577 20.9233 7.11188 20.8321 7.224L11.0821 19.224C11.013 19.3087 10.9262 19.3774 10.8278 19.425C10.7294 19.4727 10.6218 19.4983 10.5125 19.5C10.4032 19.5017 10.2948 19.4795 10.195 19.435C10.0952 19.3904 10.0063 19.3245 9.93457 19.242Z" fill="url(#paint4_linear_1404_12863)"/>
    <path d="M6.16567 6L6.02317 6.5685C5.98994 6.70204 5.99409 6.84216 6.03517 6.9735L9.78517 18.9735C9.83303 19.1258 9.92822 19.2588 10.0569 19.3533C10.1856 19.4477 10.341 19.4986 10.5007 19.4986C10.6603 19.4986 10.8158 19.4477 10.9444 19.3533C11.0731 19.2588 11.1683 19.1258 11.2162 18.9735L14.9662 6.9735C15.0073 6.84216 15.0114 6.70204 14.9782 6.5685L14.8357 6H6.16567Z" fill="url(#paint5_linear_1404_12863)"/>
    <path d="M3.75028 1.44917e-06C3.61111 6.11918e-06 3.47469 0.038732 3.35628 0.111847C3.23786 0.184961 3.14213 0.289581 3.07978 0.414001L0.0797797 6.414C0.0149001 6.54318 -0.0112636 6.68836 0.00443739 6.83207C0.0201384 6.97577 0.0770351 7.11188 0.16828 7.224L9.91828 19.224C9.9886 19.3105 10.0773 19.3803 10.178 19.4282C10.2787 19.4761 10.3888 19.501 10.5003 19.501C10.6118 19.501 10.7219 19.4761 10.8225 19.4282C10.9232 19.3803 11.012 19.3105 11.0823 19.224L20.8323 7.224C20.9238 7.11203 20.9809 6.976 20.9969 6.83229C21.0129 6.68858 20.987 6.54332 20.9223 6.414L17.9223 0.414001C17.8598 0.289353 17.7638 0.184582 17.6451 0.111452C17.5264 0.0383221 17.3897 -0.000272583 17.2503 1.44917e-06H3.75028Z" fill="url(#paint6_linear_1404_12863)" fill-opacity="0.7"/>
    <defs>
        <linearGradient id="paint0_linear_1404_12863" x1="7.24408" y1="-2.673" x2="3.77008" y2="5.64" gradientUnits="userSpaceOnUse">
            <stop stop-color="#9FF0F9"/>
            <stop offset="1" stop-color="#29C3FF"/>
        </linearGradient>
        <linearGradient id="paint1_linear_1404_12863" x1="15.5475" y1="-2.31181e-08" x2="19.506" y2="9.948" gradientUnits="userSpaceOnUse">
            <stop stop-color="#0FAFFF"/>
            <stop offset="1" stop-color="#102784"/>
        </linearGradient>
        <linearGradient id="paint2_linear_1404_12863" x1="10.5" y1="0" x2="10.5" y2="8.4375" gradientUnits="userSpaceOnUse">
            <stop stop-color="#3BD5FF"/>
            <stop offset="1" stop-color="#367AF2"/>
        </linearGradient>
        <linearGradient id="paint3_linear_1404_12863" x1="1.95328" y1="3.3" x2="10.2273" y2="19.26" gradientUnits="userSpaceOnUse">
            <stop stop-color="#0094F0"/>
            <stop offset="1" stop-color="#6CE0FF"/>
        </linearGradient>
        <linearGradient id="paint4_linear_1404_12863" x1="23.6041" y1="-0.75" x2="11.2756" y2="17.742" gradientUnits="userSpaceOnUse">
            <stop stop-color="#1B44B1"/>
            <stop offset="1" stop-color="#2052CB"/>
        </linearGradient>
        <linearGradient id="paint5_linear_1404_12863" x1="10.4947" y1="1.275" x2="10.4947" y2="19.5" gradientUnits="userSpaceOnUse">
            <stop stop-color="#2052CB"/>
            <stop offset="1" stop-color="#0FAFFF"/>
        </linearGradient>
        <linearGradient id="paint6_linear_1404_12863" x1="-2.13272" y1="-18.363" x2="14.6463" y2="21.0795" gradientUnits="userSpaceOnUse">
            <stop offset="0.533" stop-color="#FF6CE8" stop-opacity="0"/>
            <stop offset="1" stop-color="#FF6CE8"/>
        </linearGradient>
    </defs>
</svg>
