<svg xmlns="http://www.w3.org/2000/svg" width="60" height="60" viewBox="0 0 60 60" fill="none" style="width: 24px; height: 24px;">
    <path
        d="M18.9428 6.315C19.1915 5.56828 19.6688 4.91874 20.3072 4.45839C20.9456 3.99804 21.7126 3.7502 22.4997 3.75H39.3747C39.9806 3.74992 40.5775 3.89668 41.1143 4.1777C41.6511 4.45872 42.1119 4.86564 42.4571 5.36362C42.8023 5.86161 43.0217 6.43582 43.0964 7.03712C43.1712 7.63841 43.0992 8.24887 42.8865 8.81625L39.1609 18.75H44.9997C45.7115 18.75 46.4086 18.9527 47.0095 19.3342C47.6105 19.7157 48.0904 20.2605 48.3932 20.9047C48.6961 21.5489 48.8093 22.266 48.7197 22.9721C48.6301 23.6783 48.3413 24.3444 47.8872 24.8925L23.3865 54.4631C20.1878 58.3219 13.9815 55.1475 15.2378 50.2969L19.5278 33.75H14.9997C14.4054 33.7499 13.8197 33.6087 13.2907 33.3378C12.7618 33.0669 12.3048 32.6742 11.9574 32.1921C11.61 31.7099 11.3822 31.1521 11.2928 30.5646C11.2033 29.9772 11.2547 29.3768 11.4428 28.8131L18.9428 6.315ZM22.4997 7.5L14.9997 30H21.9522C22.2385 30 22.521 30.0656 22.7781 30.1917C23.0351 30.3178 23.2599 30.5011 23.4351 30.7276C23.6103 30.954 23.7313 31.2176 23.7889 31.4981C23.8465 31.7785 23.839 32.0685 23.7672 32.3456L18.8678 51.2381C18.6165 52.2075 19.8578 52.8431 20.499 52.0706L44.9997 22.5H36.4553C36.1524 22.4999 35.854 22.4264 35.5858 22.2858C35.3175 22.1452 35.0872 21.9418 34.9147 21.6928C34.7423 21.4438 34.6326 21.1568 34.5953 20.8562C34.5579 20.5556 34.594 20.2505 34.7003 19.9669L39.3747 7.5H22.4997Z"
        fill="url(#paint0_linear_3896_10188)"/>
    <defs>
        <linearGradient id="paint0_linear_3896_10188" x1="29.9998" y1="3.75" x2="29.9998" y2="56.1837"
                        gradientUnits="userSpaceOnUse">
            <stop stop-color="#7E92F8"/>
            <stop offset="1" stop-color="#6972F0"/>
        </linearGradient>
    </defs>
</svg>
