<svg xmlns="http://www.w3.org/2000/svg" width="60" height="60" viewBox="0 0 60 60" fill="none" style="width: 24px; height: 24px;">
    <path d="M44.3892 35.0002C45.8802 35.0015 47.3097 35.5947 48.3635 36.6495C49.4173 37.7042 50.0092 39.1342 50.0092 40.6252V42.0627C50.0092 44.2977 49.2092 46.4602 47.7592 48.1577C43.8342 52.7402 37.8667 55.0027 30.0017 55.0027C22.1367 55.0027 16.1717 52.7402 12.2567 48.1527C10.8082 46.4561 10.0122 44.2985 10.0117 42.0677V40.6227C10.0124 39.1317 10.605 37.702 11.6592 36.6477C12.7135 35.5934 14.1432 35.0009 15.6342 35.0002H44.3892ZM44.3892 38.7502H15.6317C15.1344 38.7502 14.6575 38.9477 14.3059 39.2994C13.9543 39.651 13.7567 40.1279 13.7567 40.6252V42.0677C13.7567 43.4052 14.2367 44.7002 15.1067 45.7177C18.2392 49.3902 23.1567 51.2527 29.9992 51.2527C36.8467 51.2527 41.7642 49.3902 44.9067 45.7202C45.7783 44.7009 46.2571 43.4038 46.2567 42.0627V40.6227C46.2561 40.1267 46.0589 39.6512 45.7084 39.3002C45.358 38.9493 44.8852 38.7515 44.3892 38.7502ZM30.0017 5.0127C31.6432 5.0127 33.2687 5.33602 34.7853 5.9642C36.3018 6.59238 37.6798 7.51313 38.8406 8.67386C40.0013 9.83459 40.922 11.2126 41.5502 12.7292C42.1784 14.2457 42.5017 15.8712 42.5017 17.5127C42.5017 19.1542 42.1784 20.7797 41.5502 22.2962C40.922 23.8128 40.0013 25.1908 38.8406 26.3515C37.6798 27.5123 36.3018 28.433 34.7853 29.0612C33.2687 29.6894 31.6432 30.0127 30.0017 30.0127C26.6865 30.0127 23.5071 28.6957 21.1629 26.3515C18.8187 24.0073 17.5017 20.8279 17.5017 17.5127C17.5017 14.1975 18.8187 11.0181 21.1629 8.67386C23.5071 6.32966 26.6865 5.0127 30.0017 5.0127ZM30.0017 8.7627C28.8527 8.7627 27.7148 8.98902 26.6532 9.42875C25.5916 9.86848 24.627 10.513 23.8145 11.3255C23.002 12.138 22.3575 13.1026 21.9178 14.1642C21.478 15.2258 21.2517 16.3636 21.2517 17.5127C21.2517 18.6618 21.478 19.7996 21.9178 20.8612C22.3575 21.9228 23.002 22.8874 23.8145 23.6999C24.627 24.5124 25.5916 25.1569 26.6532 25.5966C27.7148 26.0364 28.8527 26.2627 30.0017 26.2627C32.3224 26.2627 34.548 25.3408 36.1889 23.6999C37.8298 22.0589 38.7517 19.8333 38.7517 17.5127C38.7517 15.1921 37.8298 12.9665 36.1889 11.3255C34.548 9.68457 32.3224 8.7627 30.0017 8.7627Z" fill="url(#paint0_linear_3896_1182)"/>
    <defs>
        <linearGradient id="paint0_linear_3896_1182" x1="30.0105" y1="5.0127" x2="30.0105" y2="55.0027" gradientUnits="userSpaceOnUse">
            <stop stop-color="#7E92F8"/>
            <stop offset="1" stop-color="#6972F0"/>
        </linearGradient>
    </defs>
</svg>
