<svg xmlns="http://www.w3.org/2000/svg" width="60" height="60" viewBox="0 0 60 60" fill="none" style="width: 24px; height: 24px;">
    <path d="M25.125 27.9688C24.4205 27.9688 23.7449 28.2486 23.2467 28.7467C22.7486 29.2449 22.4688 29.9205 22.4688 30.625C22.4688 31.3295 22.7486 32.0051 23.2467 32.5033C23.7449 33.0014 24.4205 33.2812 25.125 33.2812C25.4738 33.2812 25.8192 33.2125 26.1415 33.0791C26.4638 32.9456 26.7566 32.7499 27.0033 32.5033C27.2499 32.2566 27.4456 31.9638 27.5791 31.6415C27.7125 31.3192 27.7813 30.9738 27.7813 30.625C27.7813 30.2762 27.7125 29.9308 27.5791 29.6085C27.4456 29.2862 27.2499 28.9934 27.0033 28.7467C26.7566 28.5001 26.4638 28.3044 26.1415 28.1709C25.8192 28.0375 25.4738 27.9688 25.125 27.9688ZM37.875 27.9688C37.1705 27.9688 36.4949 28.2486 35.9967 28.7467C35.4986 29.2449 35.2188 29.9205 35.2188 30.625C35.2188 31.3295 35.4986 32.0051 35.9967 32.5033C36.4949 33.0014 37.1705 33.2812 37.875 33.2812C38.5795 33.2812 39.2551 33.0014 39.7533 32.5033C40.2514 32.0051 40.5312 31.3295 40.5312 30.625C40.5312 29.9205 40.2514 29.2449 39.7533 28.7467C39.2551 28.2486 38.5795 27.9688 37.875 27.9688ZM31.5 7.25C28.7094 7.25 25.9461 7.79965 23.368 8.86756C20.7898 9.93547 18.4472 11.5007 16.474 13.474C12.4888 17.4591 10.25 22.8641 10.25 28.5C10.25 34.1359 12.4888 39.5409 16.474 43.526C18.4472 45.4993 20.7898 47.0645 23.368 48.1324C25.9461 49.2004 28.7094 49.75 31.5 49.75C37.1359 49.75 42.5409 47.5112 46.526 43.526C50.5112 39.5409 52.75 34.1359 52.75 28.5C52.75 25.7094 52.2004 22.9461 51.1324 20.368C50.0645 17.7898 48.4993 15.4472 46.526 13.474C44.5528 11.5007 42.2102 9.93547 39.632 8.86756C37.0539 7.79965 34.2906 7.25 31.5 7.25ZM31.5 45.5C26.9913 45.5 22.6673 43.7089 19.4792 40.5208C16.2911 37.3327 14.5 33.0087 14.5 28.5C14.4343 27.8926 14.4343 27.2799 14.5 26.6725C19.5616 24.4578 23.568 20.3676 25.6775 15.2613C27.6372 18.0382 30.2349 20.304 33.2524 21.8682C36.2698 23.4324 39.6187 24.2492 43.0175 24.25C44.6325 24.25 46.2263 24.0588 47.7988 23.6975C50.455 32.75 45.3125 42.1638 36.3025 44.7988C34.6875 45.2663 33.115 45.5 31.5 45.5ZM6 7.25C6 6.12283 6.44777 5.04183 7.2448 4.2448C8.04183 3.44777 9.12283 3 10.25 3L18.75 3V7.25H10.25V15.75H6V7.25ZM57 49.75C57 50.8772 56.5522 51.9582 55.7552 52.7552C54.9582 53.5522 53.8772 54 52.75 54H44.25V49.75H52.75V41.25H57V49.75ZM10.25 54C9.12283 54 8.04183 53.5522 7.2448 52.7552C6.44777 51.9582 6 50.8772 6 49.75V41.25H10.25V49.75H18.75V54H10.25ZM52.75 3C53.8772 3 54.9582 3.44777 55.7552 4.2448C56.5522 5.04183 57 6.12283 57 7.25V15.75H52.75V7.25H44.25V3H52.75Z" fill="#7381F4"/>
</svg>
