<svg xmlns="http://www.w3.org/2000/svg" width="60" height="60" viewBox="0 0 60 60" fill="none" style="height: 24px; width: 24px;">
    <g>
        <path d="M30 39.9995C34.1421 39.9995 37.5 36.6416 37.5 32.4995C37.5 28.3574 34.1421 24.9995 30 24.9995C25.8579 24.9995 22.5 28.3574 22.5 32.4995C22.5 36.6416 25.8579 39.9995 30 39.9995Z" stroke="url(#paint0_linear_3896_17087)" stroke-width="3.93443"/>
        <path d="M24.445 52.5001H35.555C43.3575 52.5001 47.26 52.5001 50.0625 50.6626C51.2721 49.8705 52.3136 48.8476 53.1275 47.6526C55 44.9026 55 41.0701 55 33.4101C55 25.7501 55 21.9176 53.1275 19.1676C52.3136 17.9726 51.2721 16.9498 50.0625 16.1576C48.2625 14.9751 46.0075 14.5526 42.555 14.4026C40.9075 14.4026 39.49 13.1776 39.1675 11.5901C38.921 10.4273 38.2807 9.38521 37.3546 8.63999C36.4286 7.89478 35.2736 7.49214 34.085 7.50012H25.915C23.445 7.50012 21.3175 9.21262 20.8325 11.5901C20.51 13.1776 19.0925 14.4026 17.445 14.4026C13.995 14.5526 11.74 14.9776 9.9375 16.1576C8.72884 16.95 7.68818 17.9728 6.875 19.1676C5 21.9176 5 25.7476 5 33.4101C5 41.0726 5 44.9001 6.8725 47.6526C7.6825 48.8426 8.7225 49.8651 9.9375 50.6626C12.74 52.5001 16.6425 52.5001 24.445 52.5001Z" stroke="url(#paint1_linear_3896_17087)" stroke-width="4"/>
        <path d="M47.5 24.9995H45" stroke="url(#paint2_linear_3896_17087)" stroke-width="3.93443" stroke-linecap="round"/>
    </g>
    <defs>
        <linearGradient id="paint0_linear_3896_17087" x1="30" y1="24.9995" x2="30" y2="39.9995" gradientUnits="userSpaceOnUse">
            <stop stop-color="#7E92F8"/>
            <stop offset="1" stop-color="#6972F0"/>
        </linearGradient>
        <linearGradient id="paint1_linear_3896_17087" x1="30" y1="7.5" x2="30" y2="52.5001" gradientUnits="userSpaceOnUse">
            <stop stop-color="#7E92F8"/>
            <stop offset="1" stop-color="#6972F0"/>
        </linearGradient>
        <linearGradient id="paint2_linear_3896_17087" x1="46.25" y1="24.9995" x2="46.25" y2="25.9995" gradientUnits="userSpaceOnUse">
            <stop stop-color="#7E92F8"/>
            <stop offset="1" stop-color="#6972F0"/>
        </linearGradient>
    </defs>
</svg>
