<svg width="24" height="24" viewBox="0 0 24 24" fill="currentColor" xmlns="http://www.w3.org/2000/svg">
    <path d="M14.0527 2.25098C14.6741 2.24807 15.2785 2.4566 15.7637 2.84473C16.2502 3.23402 16.5869 3.77948 16.7168 4.38867L16.7187 4.39453C16.7729 4.65941 17.0154 4.85722 17.2705 4.85742H17.2871L17.3037 4.8584C18.6379 4.91605 19.6708 5.0787 20.5342 5.64258H20.5332C21.075 5.99539 21.5422 6.45069 21.9072 6.9834V6.98438C22.362 7.64851 22.5619 8.40972 22.6572 9.32422C22.7512 10.2256 22.75 11.3573 22.75 12.7881C22.75 14.219 22.7512 15.3505 22.6572 16.252C22.5738 17.0524 22.4107 17.7356 22.0664 18.3389L21.9072 18.5928C21.5878 19.0591 21.1899 19.4659 20.7324 19.7969L20.5332 19.9346C19.8582 20.3745 19.0857 20.5667 18.1543 20.6592C17.2343 20.7505 16.0784 20.75 14.6113 20.75H10.3887C8.92163 20.75 7.76572 20.7505 6.8457 20.6592C5.91432 20.5667 5.1418 20.3745 4.4668 19.9346V19.9336C3.92342 19.579 3.45655 19.124 3.09277 18.5928V18.5918C2.63814 17.9273 2.43812 17.1665 2.34277 16.252C2.24884 15.3507 2.25 14.2195 2.25 12.7881C2.25 11.3568 2.24871 10.2256 2.34277 9.32422C2.43825 8.40933 2.63814 7.64772 3.09375 6.9834C3.45848 6.45079 3.92536 5.99549 4.4668 5.64258V5.6416C5.33033 5.0796 6.36203 4.9161 7.69629 4.8584L7.71289 4.85742H7.72949C7.98456 4.85722 8.22712 4.65941 8.28125 4.39453L8.33984 4.16309C8.68088 3.02854 9.74502 2.25019 10.9473 2.25H14.0527V2.25098ZM10.9473 3.75C10.3527 3.7502 9.86124 4.15893 9.75098 4.69629C9.56168 5.62034 8.74324 6.34025 7.76074 6.35547L7.76172 6.35742C6.47438 6.41307 5.79141 6.56905 5.28516 6.89844L5.28613 6.89941C4.90924 7.14506 4.58426 7.46124 4.33106 7.83105V7.83203C4.07423 8.20652 3.91762 8.68781 3.83496 9.47949C3.75091 10.2849 3.75 11.3248 3.75 12.7881C3.75 14.2514 3.75101 15.2913 3.83496 16.0967C3.91749 16.8881 4.07343 17.37 4.33008 17.7451L4.42774 17.8809C4.66362 18.1913 4.95369 18.4608 5.28613 18.6777C5.67585 18.9317 6.17718 19.0859 6.99414 19.167C7.8229 19.2492 8.89119 19.25 10.3887 19.25H14.6113C16.1088 19.25 17.1771 19.2492 18.0059 19.167C18.8228 19.0859 19.3241 18.9317 19.7139 18.6777H19.7148C20.092 18.4322 20.4165 18.115 20.6699 17.7451C20.9264 17.3706 21.0825 16.8887 21.165 16.0967C21.249 15.291 21.25 14.251 21.25 12.7881C21.25 11.3255 21.249 10.2861 21.165 9.48047C21.0825 8.68852 20.9263 8.20654 20.6699 7.83203C20.4165 7.46219 20.0919 7.14498 19.7148 6.89941L19.7139 6.89844C19.2093 6.56894 18.5277 6.41312 17.2383 6.35742V6.35547C16.2579 6.33982 15.4411 5.62257 15.25 4.70117C15.1925 4.43208 15.0432 4.19023 14.8262 4.0166C14.609 3.84288 14.3376 3.7482 14.0576 3.75H10.9473ZM12.5 9.25C14.2949 9.25 15.75 10.7051 15.75 12.5C15.75 14.2949 14.2949 15.75 12.5 15.75C10.7051 15.75 9.25 14.2949 9.25 12.5C9.25 10.7051 10.7051 9.25 12.5 9.25ZM12.5 10.75C11.5335 10.75 10.75 11.5335 10.75 12.5C10.75 13.4665 11.5335 14.25 12.5 14.25C13.4665 14.25 14.25 13.4665 14.25 12.5C14.25 11.5335 13.4665 10.75 12.5 10.75ZM19 9.25C19.4142 9.25 19.75 9.58579 19.75 10C19.75 10.4142 19.4142 10.75 19 10.75H18C17.5858 10.75 17.25 10.4142 17.25 10C17.25 9.58579 17.5858 9.25 18 9.25H19Z"/>
</svg>
