<svg width="24" height="24" viewBox="0 0 24 24" fill="currentColor" xmlns="http://www.w3.org/2000/svg">
<path d="M20.1699 3.6084L20.2051 3.60937C20.6865 3.64168 21.1376 3.85623 21.4668 4.20898C21.7952 4.56099 21.9777 5.02452 21.9775 5.50586L22 16.3994C22 16.6503 21.95 16.9002 21.8535 17.1318C21.757 17.3633 21.6156 17.5734 21.4375 17.75C21.2593 17.9266 21.0478 18.0666 20.8154 18.1611C20.5831 18.2556 20.3338 18.303 20.083 18.3008H19.6553C18.6642 18.3147 17.676 18.4217 16.7041 18.6191C16.6854 18.6229 16.6664 18.6256 16.6475 18.6279C15.1302 18.8167 13.6825 19.3773 12.4316 20.2578C12.1727 20.4401 11.8273 20.4401 11.5684 20.2578C10.3175 19.3773 8.86984 18.8167 7.35254 18.6279C7.33361 18.6256 7.31459 18.6229 7.2959 18.6191C6.32396 18.4217 5.33581 18.3147 4.34473 18.3008H3.91699C3.66619 18.303 3.41692 18.2556 3.18457 18.1611C2.95215 18.0666 2.74068 17.9266 2.5625 17.75C2.38438 17.5734 2.243 17.3633 2.14648 17.1318C2.04997 16.9002 1.99999 16.6513 2 16.4004L2.02148 5.50586C2.02133 5.02424 2.20344 4.56006 2.53223 4.20801C2.86181 3.85517 3.31412 3.64128 3.7959 3.60937L3.83008 3.6084C5.08227 3.58351 6.33323 3.69498 7.56152 3.93945C9.14177 4.14638 10.6556 4.6944 12 5.54297C13.3441 4.69457 14.8576 4.14647 16.4375 3.93945C17.5112 3.72569 18.6022 3.61261 19.6963 3.60449L20.1699 3.6084ZM3.88867 5.10645C3.78946 5.11449 3.69695 5.15958 3.62891 5.23242C3.55958 5.30665 3.52133 5.4043 3.52148 5.50586V5.50879L3.5 16.4023C3.5002 16.4546 3.51113 16.5064 3.53125 16.5547C3.55152 16.6033 3.58082 16.6475 3.61816 16.6846C3.65562 16.7217 3.70018 16.7516 3.74902 16.7715C3.79791 16.7914 3.85055 16.8012 3.90332 16.8008C5.13695 16.7854 6.36889 16.9001 7.57812 17.1445C8.86593 17.3097 10.1088 17.7062 11.25 18.3086V6.84277C10.0716 6.0886 8.73937 5.60325 7.34863 5.42383C7.3314 5.4216 7.31391 5.41846 7.29688 5.41504C6.17522 5.18969 5.03249 5.08579 3.88867 5.10645ZM20.1094 5.10645C18.9662 5.08594 17.8241 5.18982 16.7031 5.41504C16.6861 5.41846 16.6686 5.4216 16.6514 5.42383C15.2606 5.60325 13.9284 6.0886 12.75 6.84277V18.3086C13.8909 17.7064 15.1334 17.3098 16.4209 17.1445C17.6304 16.8999 18.8627 16.7854 20.0967 16.8008C20.1494 16.8012 20.2021 16.7914 20.251 16.7715C20.2998 16.7516 20.3444 16.7217 20.3818 16.6846C20.4192 16.6475 20.4485 16.6033 20.4688 16.5547C20.4889 16.5064 20.4998 16.4546 20.5 16.4023L20.4775 5.50977V5.50586C20.4777 5.40434 20.4394 5.30666 20.3701 5.23242C20.3019 5.15932 20.209 5.11428 20.1094 5.10645Z"/>
</svg>
