<svg width="24" height="24" viewBox="0 0 24 24" fill="currentColor" xmlns="http://www.w3.org/2000/svg">
    <path d="M15.7504 1.5C15.9926 1.50002 16.2312 1.55863 16.4457 1.6709C16.6604 1.78329 16.8448 1.94635 16.9828 2.14551C17.1208 2.34459 17.2087 2.57408 17.2387 2.81445C17.2686 3.05494 17.2398 3.29943 17.1547 3.52636L15.6645 7.49998H18.0004C18.285 7.50005 18.5639 7.58085 18.8041 7.73338C19.0445 7.886 19.2367 8.1046 19.3579 8.36228C19.4788 8.61975 19.5235 8.90626 19.4877 9.18845C19.4519 9.47092 19.3364 9.73775 19.1547 9.95701L9.35486 21.7851C8.07544 23.3285 5.59303 22.0591 6.09507 20.1191L7.8109 13.5H6.00034C5.7627 13.4999 5.52828 13.4432 5.31674 13.3349C5.10527 13.2266 4.92246 13.0697 4.78354 12.8769C4.64458 12.6841 4.55272 12.4605 4.51693 12.2256C4.48121 11.9907 4.5023 11.7507 4.57748 11.5254L7.5775 2.52636C7.67699 2.22768 7.86805 1.96734 8.1234 1.7832C8.3787 1.5992 8.68566 1.50008 9.00036 1.5H15.7504ZM6.00034 12H8.78064C8.89517 12 9.00887 12.0267 9.11169 12.0771C9.21434 12.1276 9.30439 12.2005 9.37439 12.291C9.44445 12.3815 9.49297 12.4874 9.51599 12.5996C9.53892 12.7116 9.53591 12.8277 9.5072 12.9384L7.54723 20.4951C7.44673 20.8828 7.94307 21.137 8.19958 20.8281L18.0004 8.99998H14.5824C14.4613 8.99993 14.3421 8.97024 14.2348 8.91404C14.1275 8.85781 14.0352 8.77632 13.9662 8.67674C13.8974 8.57727 13.8533 8.4628 13.8383 8.34275C13.8234 8.22252 13.8378 8.09975 13.8803 7.98631L15.7504 3H9.00036L6.00034 12Z"/>
</svg>
