<svg width="24" height="24" viewBox="0 0 24 24" fill="currentColor" xmlns="http://www.w3.org/2000/svg">
    <path d="M15 19.25C15.4142 19.25 15.75 19.5858 15.75 20C15.75 20.4142 15.4142 20.75 15 20.75H9C8.58579 20.75 8.25 20.4142 8.25 20C8.25001 19.5858 8.58579 19.25 9 19.25H15ZM16.7998 4.25C17.3474 4.25 17.8038 4.24897 18.1748 4.2793C18.5544 4.31035 18.911 4.37777 19.2481 4.54981L19.2471 4.55079C19.7641 4.81414 20.1849 5.23248 20.4492 5.75098H20.4502C20.6223 6.08804 20.6897 6.44479 20.7207 6.82422C20.751 7.19501 20.75 7.65067 20.75 8.19727V13.8027C20.75 14.3493 20.751 14.8052 20.7207 15.1758C20.6896 15.555 20.6222 15.9112 20.4502 16.2481L20.4492 16.2471C20.1855 16.765 19.765 17.1855 19.2471 17.4492C18.9103 17.621 18.5548 17.6896 18.1758 17.7207C17.8052 17.751 17.3493 17.75 16.8027 17.75H7.19727C6.65067 17.75 6.19501 17.751 5.82422 17.7207C5.49207 17.6935 5.17731 17.6384 4.87793 17.5098L4.75098 17.4502C4.23363 17.1863 3.81419 16.7647 3.55079 16.2471C3.37889 15.9102 3.31033 15.5542 3.2793 15.1748C3.24897 14.8038 3.25 14.3474 3.25 13.7998V8.2002C3.25 7.65258 3.24898 7.19633 3.2793 6.8252C3.31034 6.44545 3.37813 6.08912 3.54981 5.75196C3.81373 5.23374 4.23374 4.81373 4.75196 4.54981C5.08912 4.37813 5.44545 4.31034 5.8252 4.2793C6.19633 4.24898 6.65258 4.25 7.2002 4.25H16.7998ZM7.2002 5.75C6.62783 5.75 6.24314 5.75024 5.94727 5.77442C5.66038 5.79788 5.5233 5.84054 5.43262 5.88672C5.19685 6.0068 5.0068 6.19685 4.88672 6.43262C4.84054 6.5233 4.79788 6.66038 4.77442 6.94727C4.75024 7.24314 4.75 7.62783 4.75 8.2002V13.7998C4.75 14.3722 4.75025 14.757 4.77442 15.0527C4.79202 15.2678 4.82031 15.3985 4.85254 15.4883L4.88575 15.5664L4.88672 15.5674C5.00647 15.8026 5.19746 15.9943 5.43262 16.1143C5.52251 16.1602 5.65966 16.2021 5.94629 16.2256C6.24175 16.2498 6.62589 16.25 7.19727 16.25H16.8027C17.374 16.25 17.7576 16.2497 18.0527 16.2256C18.3391 16.2021 18.4764 16.1602 18.5664 16.1143V16.1133C18.8019 15.9934 18.9934 15.8019 19.1133 15.5664H19.1143C19.1602 15.4764 19.2021 15.3391 19.2256 15.0527C19.2497 14.7576 19.25 14.374 19.25 13.8027V8.19727C19.25 7.62589 19.2498 7.24175 19.2256 6.94629C19.2021 6.65966 19.1602 6.52251 19.1143 6.43262H19.1133C18.9936 6.19764 18.803 6.0072 18.5664 5.88672V5.88575C18.4766 5.83988 18.3395 5.79789 18.0527 5.77442C17.757 5.75025 17.3722 5.75 16.7998 5.75H7.2002Z"/>
</svg>
