<svg width="24" height="24" viewBox="0 0 24 24" fill="currentColor" xmlns="http://www.w3.org/2000/svg">
    <path d="M14 3.25C15.8643 3.25 17.3384 3.24853 18.4893 3.40332C19.6614 3.56101 20.6104 3.89306 21.3584 4.6416C22.1062 5.39004 22.4389 6.33939 22.5967 7.51172C22.7515 8.66242 22.75 10.1358 22.75 12C22.75 13.8643 22.7515 15.3384 22.5967 16.4893C22.439 17.6614 22.1069 18.6104 21.3584 19.3584C20.61 20.1062 19.6606 20.4389 18.4883 20.5967C17.3376 20.7515 15.8642 20.75 14 20.75H10C8.13571 20.75 6.66161 20.7515 5.51074 20.5967C4.33857 20.439 3.38963 20.1069 2.6416 19.3584C1.89381 18.61 1.56115 17.6606 1.40332 16.4883C1.24846 15.3376 1.25 13.8642 1.25 12C1.25 10.1357 1.24853 8.66161 1.40332 7.51074C1.56101 6.33857 1.89306 5.38963 2.6416 4.6416C3.39004 3.89381 4.33939 3.56115 5.51172 3.40332C6.66242 3.24846 8.13583 3.25 10 3.25H14ZM10 4.75C8.09366 4.75 6.73935 4.75235 5.71191 4.89063C4.70617 5.02602 4.12569 5.27908 3.70215 5.70215C3.27891 6.12502 3.02496 6.70487 2.88965 7.71094C2.75144 8.73857 2.75 10.0933 2.75 12C2.75 13.9063 2.75235 15.2606 2.89063 16.2881C3.02602 17.2938 3.27908 17.8743 3.70215 18.2979C4.12503 18.7211 4.70487 18.975 5.71094 19.1104C6.73857 19.2486 8.09329 19.25 10 19.25H14C15.9063 19.25 17.2606 19.2476 18.2881 19.1094C19.2938 18.974 19.8743 18.7209 20.2978 18.2979C20.7211 17.875 20.975 17.2951 21.1103 16.2891C21.2486 15.2614 21.25 13.9067 21.25 12C21.25 10.0937 21.2476 8.73935 21.1094 7.71191C20.974 6.70617 20.7209 6.12569 20.2978 5.70215C19.875 5.27891 19.2951 5.02496 18.2891 4.88965C17.2614 4.75144 15.9067 4.75 14 4.75H10ZM9 12.25C10.0228 12.25 10.8218 12.3068 11.4453 12.4189C12.0631 12.5301 12.5615 12.705 12.9395 12.9785C13.7882 13.5928 13.75 14.4998 13.75 15C13.75 15.9894 12.9678 16.6831 12.1641 17.085C11.3157 17.5092 10.1961 17.75 9 17.75C7.80391 17.75 6.68435 17.5092 5.83594 17.085C5.0322 16.6831 4.25 15.9894 4.25 15C4.25 14.4998 4.2118 13.5928 5.06055 12.9785C5.43851 12.705 5.93693 12.5301 6.55469 12.4189C7.17818 12.3068 7.97723 12.25 9 12.25ZM9 13.75C8.02278 13.75 7.32182 13.8053 6.82031 13.8955C6.31309 13.9867 6.06149 14.105 5.93945 14.1934C5.78845 14.3027 5.75 14.3956 5.75 15C5.75 15.1156 5.8631 15.4213 6.50684 15.7432C7.10593 16.0427 7.98609 16.25 9 16.25C10.0139 16.25 10.8941 16.0427 11.4932 15.7432C12.1369 15.4213 12.25 15.1156 12.25 15C12.25 14.3956 12.2115 14.3027 12.0605 14.1934C11.9385 14.105 11.6869 13.9867 11.1797 13.8955C10.6782 13.8053 9.97722 13.75 9 13.75ZM19 14.25C19.4142 14.25 19.75 14.5858 19.75 15C19.75 15.4142 19.4142 15.75 19 15.75H16C15.5858 15.75 15.25 15.4142 15.25 15C15.25 14.5858 15.5858 14.25 16 14.25H19ZM19 11.25C19.4142 11.25 19.75 11.5858 19.75 12C19.75 12.4142 19.4142 12.75 19 12.75H15C14.5858 12.75 14.25 12.4142 14.25 12C14.25 11.5858 14.5858 11.25 15 11.25H19ZM9 6.25C10.5188 6.25 11.75 7.48122 11.75 9C11.75 10.5188 10.5188 11.75 9 11.75C7.48122 11.75 6.25 10.5188 6.25 9C6.25 7.48122 7.48122 6.25 9 6.25ZM9 7.75C8.30964 7.75 7.75 8.30964 7.75 9C7.75 9.69036 8.30964 10.25 9 10.25C9.69036 10.25 10.25 9.69036 10.25 9C10.25 8.30964 9.69036 7.75 9 7.75ZM19 8.25C19.4142 8.25 19.75 8.58579 19.75 9C19.75 9.41421 19.4142 9.75 19 9.75H14C13.5858 9.75 13.25 9.41421 13.25 9C13.25 8.58579 13.5858 8.25 14 8.25H19Z"/>
</svg>
