<svg width="24" height="24" viewBox="0 0 24 24" fill="currentColor" xmlns="http://www.w3.org/2000/svg">
<path d="M14.917 2.27424C15.7905 2.19461 16.6697 2.30791 17.4981 2.60529C18.3265 2.90278 19.0852 3.37818 19.7256 3.99787C20.3658 4.61742 20.8751 5.36883 21.2227 6.20197C21.5701 7.03499 21.7492 7.93398 21.75 8.84162C21.7504 9.25571 21.4151 9.59206 21.001 9.5926C20.587 9.59294 20.2506 9.25757 20.25 8.84358C20.2494 8.13181 20.1087 7.42815 19.8379 6.77912C19.5672 6.13037 19.173 5.55068 18.6827 5.076C18.1921 4.60134 17.6152 4.24148 16.9912 4.0174C16.3674 3.79343 15.7074 3.70868 15.0528 3.76838C14.3981 3.82812 13.7599 4.03122 13.1797 4.36604C12.5995 4.70096 12.0885 5.16182 11.6807 5.72053C11.2728 6.27945 10.9772 6.92413 10.8154 7.61408C10.6739 8.21801 10.6378 8.84413 10.708 9.46076L10.7442 9.72444C10.8599 10.4338 10.7295 11.275 10.1524 11.8846L4.15332 18.2186L4.15235 18.2196C3.8997 18.4858 3.75008 18.8578 3.75 19.2537V21.2498H5.71192V19.8065C5.71235 19.3926 6.04797 19.0565 6.46192 19.0565H7.7881V17.6141C7.78817 17.4322 7.85467 17.2557 7.97462 17.119L9.04396 15.9012C9.31705 15.5902 9.79027 15.5591 10.1016 15.8319C10.4129 16.105 10.4439 16.5791 10.1709 16.8905L9.2881 17.8963V19.8065C9.2881 20.2207 8.95231 20.5565 8.5381 20.5565H7.21192V21.9998C7.21192 22.4139 6.87596 22.7496 6.46192 22.7498H3C2.58579 22.7498 2.25 22.414 2.25 21.9998V19.2537C2.25008 18.4863 2.53827 17.7406 3.06445 17.1864L9.06251 10.8533C9.23088 10.6754 9.32685 10.3543 9.26369 9.96662V9.96565C9.11717 9.07116 9.14797 8.15394 9.35451 7.27229C9.56128 6.39009 9.94038 5.5597 10.4688 4.83576C10.9973 4.11176 11.665 3.50807 12.4307 3.06623C13.1965 2.62442 14.0435 2.35391 14.917 2.27424ZM20.4258 12.1141C20.6999 12.0006 21.002 11.9712 21.293 12.0291C21.5838 12.087 21.8509 12.2297 22.0606 12.4393C22.2704 12.6491 22.4129 12.9169 22.4707 13.2078C22.5286 13.4987 22.4993 13.8 22.3858 14.074C22.2723 14.3481 22.0797 14.5821 21.833 14.7469C21.5864 14.9117 21.2967 14.9998 21 14.9998C20.8666 14.9998 20.74 14.9764 20.6162 14.9442L19.8252 15.7362C20.089 16.1822 20.25 16.6959 20.25 17.2498C20.25 17.804 20.0892 18.3183 19.8252 18.7645L20.6172 19.5555C20.7401 19.5226 20.8667 19.4998 21 19.4998C21.2966 19.4998 21.5864 19.5881 21.833 19.7528C22.0797 19.9176 22.2723 20.1525 22.3858 20.4266C22.4992 20.7006 22.5286 21.002 22.4707 21.2928C22.4129 21.5837 22.2703 21.8506 22.0606 22.0604C21.8509 22.2701 21.5839 22.4136 21.293 22.4715C21.002 22.5294 20.6999 22.4991 20.4258 22.3856C20.152 22.2721 19.9177 22.0803 19.753 21.8338C19.5881 21.5871 19.5 21.2965 19.5 20.9998C19.5019 20.8701 19.5207 20.741 19.5557 20.616L18.7647 19.825C18.3184 20.089 17.8043 20.2498 17.25 20.2498C16.6958 20.2498 16.1816 20.089 15.7354 19.825L14.9444 20.616C14.9773 20.7397 15 20.8664 15 20.9998C15 21.2965 14.9119 21.5871 14.7471 21.8338C14.5823 22.0803 14.3481 22.2721 14.0742 22.3856C13.8002 22.4991 13.498 22.5294 13.2071 22.4715C12.9162 22.4136 12.6492 22.2701 12.4395 22.0604C12.2298 21.8506 12.0872 21.5837 12.0293 21.2928C11.9715 21.002 12.0009 20.7006 12.1143 20.4266C12.2278 20.1525 12.4203 19.9176 12.667 19.7528C12.9136 19.5881 13.2035 19.4998 13.5 19.4998C13.6298 19.5016 13.7588 19.5205 13.8838 19.5555L14.6748 18.7645C14.4109 18.3183 14.25 17.804 14.25 17.2498C14.2501 16.6959 14.411 16.1822 14.6748 15.7362L13.8838 14.9442C13.7601 14.9772 13.6335 14.9998 13.5 14.9998C13.2034 14.9998 12.9137 14.9117 12.667 14.7469C12.4203 14.5821 12.2278 14.3481 12.1143 14.074C12.0008 13.8 11.9715 13.4987 12.0293 13.2078C12.0872 12.9169 12.2297 12.6491 12.4395 12.4393C12.6491 12.2297 12.9163 12.087 13.2071 12.0291C13.498 11.9712 13.8002 12.0006 14.0742 12.1141C14.3483 12.2276 14.5823 12.4202 14.7471 12.6668C14.9119 12.9134 15 13.2033 15 13.4998C15 13.6333 14.9766 13.7608 14.9444 13.8846L15.7354 14.6756C16.1816 14.4116 16.6958 14.2498 17.25 14.2498C17.8043 14.2498 18.3184 14.4116 18.7647 14.6756L19.5557 13.8846C19.5227 13.7608 19.5 13.6333 19.5 13.4998C19.5001 13.2033 19.5882 12.9134 19.753 12.6668C19.9178 12.4202 20.1518 12.2276 20.4258 12.1141ZM17.25 15.7498C16.4229 15.7498 15.7502 16.4235 15.75 17.2498C15.75 18.0771 16.4228 18.7498 17.25 18.7498C18.0773 18.7498 18.75 18.0763 18.75 17.2498C18.7499 16.4235 18.0772 15.7498 17.25 15.7498ZM15.4619 5.16877C16.4086 5.16888 17.3076 5.56669 17.9639 6.25959C18.619 6.95123 18.9804 7.8811 18.9805 8.8426C18.9804 9.25676 18.6447 9.5926 18.2305 9.5926C17.8165 9.59244 17.4806 9.25666 17.4805 8.8426C17.4804 8.25342 17.2585 7.69571 16.875 7.29084C16.4929 6.88751 15.9837 6.66888 15.4619 6.66877C15.0478 6.66877 14.712 6.33292 14.7119 5.91877C14.7121 5.5047 15.0478 5.16877 15.4619 5.16877Z"/>
</svg>
