<svg width="20" height="20" viewBox="0 0 20 20" xmlns="http://www.w3.org/2000/svg">
    <path d="M12.4875 1.30859C15.5411 1.30876 18.0234 3.77468 18.0236 6.82326C18.0236 9.87136 15.5426 12.3369 12.4894 12.3379V12.3389H12.4875L12.4865 12.3379C12.2006 12.3377 11.7548 12.3063 11.299 12.2119C11.0406 12.1584 10.7429 12.0764 10.4592 11.9502L10.2248 12.1836C10.2708 12.2432 10.3186 12.314 10.3644 12.3955L10.3947 12.4414C10.4178 12.4786 10.4471 12.5293 10.4787 12.5908C10.5413 12.713 10.6172 12.8886 10.6681 13.1016C10.7723 13.5375 10.7728 14.1493 10.3459 14.7442C10.3429 14.7483 10.3401 14.7528 10.3371 14.7569C10.0934 15.0807 9.63382 15.4732 9.00995 15.5918C8.75089 15.641 8.4831 15.6392 8.21405 15.5801C8.19523 15.8836 8.10051 16.2138 7.86737 16.5391C7.8643 16.5434 7.86077 16.5476 7.8576 16.5518C7.59438 16.9016 7.13913 17.2289 6.591 17.334C6.18977 17.4108 5.75915 17.3636 5.34979 17.1514L4.97577 17.5245C4.53299 17.9655 4.00595 18.071 3.55194 18.0039C3.13217 17.9419 2.78439 17.7373 2.57635 17.5596C2.56327 17.5484 2.55047 17.5366 2.53827 17.5245L1.86151 16.8506C1.38671 16.3775 1.25074 15.8259 1.33221 15.3272C1.40666 14.8718 1.65212 14.5106 1.86151 14.3018V14.3008L7.36932 8.81545C7.34029 8.74719 7.30929 8.67303 7.27948 8.59279C7.1186 8.15967 6.95428 7.54341 6.95428 6.82326C6.95452 3.77595 9.43338 1.30877 12.4875 1.30859ZM12.4875 2.68946C10.1908 2.68964 8.33538 4.54281 8.33514 6.82326C8.33514 7.33742 8.45294 7.78797 8.57342 8.11232C8.63316 8.27312 8.69219 8.39935 8.73456 8.48244C8.75566 8.52383 8.77203 8.55508 8.78241 8.57326C8.7866 8.58058 8.79028 8.58571 8.79217 8.58889L8.84686 8.69533C8.95031 8.94901 8.89383 9.24554 8.69452 9.44436L2.83514 15.2793C2.7817 15.3329 2.71207 15.4426 2.69452 15.5498C2.68712 15.5951 2.68911 15.6365 2.70233 15.6778C2.71546 15.7185 2.74766 15.7859 2.83514 15.8731L3.48553 16.5196C3.54408 16.5653 3.65039 16.6234 3.75409 16.6387C3.80205 16.6457 3.83973 16.6421 3.8703 16.6329C3.89843 16.6243 3.94381 16.6041 4.00213 16.5459H4.00311L4.79217 15.7608L4.90057 15.6729C5.16787 15.4974 5.53045 15.5265 5.76581 15.7608C5.99759 15.9916 6.18887 16.0057 6.33124 15.9786C6.51337 15.9436 6.67631 15.8235 6.75213 15.7246C6.86104 15.5665 6.85623 15.4243 6.80682 15.2764C6.77985 15.1957 6.74141 15.1237 6.70819 15.0713C6.69232 15.0463 6.67873 15.0278 6.67108 15.0176L6.6701 15.0157C6.43504 14.7416 6.45142 14.3321 6.70721 14.0772L6.93182 13.8526C7.20116 13.5843 7.63723 13.5851 7.90643 13.8535C8.3132 14.259 8.59817 14.2656 8.75213 14.2364C8.95442 14.1979 9.13575 14.0534 9.23065 13.9287C9.35997 13.7427 9.36135 13.5724 9.32538 13.4219C9.30591 13.3407 9.27557 13.2703 9.25018 13.2207L9.22381 13.1719L9.22284 13.1709L9.22186 13.169L9.21991 13.167C9.21914 13.1659 9.21909 13.1645 9.21893 13.1641C9.2005 13.1375 9.18368 13.11 9.16913 13.0811C9.1548 13.0526 9.13328 13.0222 9.08221 12.9658C9.06011 12.9416 8.9154 12.7971 8.83026 12.6446C8.70082 12.4126 8.66501 12.1308 8.77752 11.8418C8.86499 11.6174 9.02836 11.4292 9.18573 11.2725L9.86249 10.5987L9.96307 10.5156C10.2125 10.3474 10.5498 10.3582 10.7892 10.5567C10.9263 10.6703 11.2027 10.7835 11.5783 10.8614C11.9333 10.9349 12.286 10.958 12.4885 10.958C14.7853 10.9575 16.6428 9.10411 16.6428 6.82326C16.6425 4.54253 14.7847 2.68962 12.4875 2.68946ZM12.4894 4.45118C12.8008 4.45091 13.1098 4.51126 13.3976 4.62989C13.686 4.74877 13.9482 4.92346 14.1691 5.14356C14.3902 5.36383 14.5658 5.62599 14.6857 5.91407C14.8056 6.20209 14.8677 6.51128 14.8683 6.82326V6.82619C14.8668 7.45607 14.6154 8.06034 14.1691 8.5049C13.7232 8.94895 13.1187 9.19686 12.4894 9.19631H12.4885L12.4875 9.19729V9.19631C11.8584 9.19679 11.2546 8.94874 10.8088 8.5049C10.3624 8.06031 10.1101 7.4562 10.1086 6.82619V6.82326C10.1092 6.51136 10.1714 6.20203 10.2912 5.91407C10.4111 5.62612 10.5868 5.36375 10.8078 5.14356C11.0288 4.9234 11.2918 4.74876 11.5803 4.62989C11.8679 4.51141 12.1764 4.45094 12.4875 4.45118H12.4885L12.4904 4.4502L12.4894 4.45118ZM12.4875 5.83107C12.3567 5.83083 12.2266 5.85649 12.1056 5.90626C11.985 5.95604 11.8749 6.02905 11.7824 6.12111C11.6898 6.21341 11.6159 6.32364 11.5656 6.44435C11.5154 6.56499 11.4897 6.69454 11.4894 6.82521C11.4907 7.08851 11.5958 7.34051 11.7824 7.52638C11.9696 7.71284 12.2232 7.81788 12.4875 7.8174H12.4904C12.7544 7.81769 13.0084 7.71269 13.1955 7.52638C13.3818 7.34056 13.4872 7.08828 13.4885 6.82521C13.4882 6.69459 13.4625 6.56495 13.4123 6.44435C13.362 6.32358 13.2882 6.21345 13.1955 6.12111C13.1028 6.02877 12.9922 5.95613 12.8713 5.90626C12.7505 5.85651 12.621 5.83092 12.4904 5.83107H12.4875Z" color="current"/>
</svg>
