<svg width="20" height="20" viewBox="0 0 20 20" xmlns="http://www.w3.org/2000/svg">
    <path d="M10 0.917969C10.5304 0.917969 11.039 1.12883 11.4141 1.50391C11.7891 1.87897 12 2.38759 12 2.91797C11.9999 3.44831 11.7891 3.95702 11.4141 4.33203C11.2227 4.52337 10.996 4.67085 10.75 4.77051V5.91797H10.833C11.99 5.91797 12.9334 5.91676 13.6758 6.0166C14.4396 6.11934 15.1024 6.34113 15.6309 6.87012H15.6299C16.1589 7.3986 16.3816 8.0613 16.4844 8.8252C16.4848 8.82835 16.4849 8.8318 16.4854 8.83496C16.7649 8.83567 17.0155 8.83901 17.2295 8.8584C17.5125 8.88406 17.8048 8.94187 18.083 9.10254C18.3869 9.27806 18.639 9.53105 18.8145 9.83496C18.9749 10.113 19.0329 10.4047 19.0586 10.6875C19.0833 10.9601 19.083 11.2923 19.083 11.668C19.083 12.0436 19.0833 12.3758 19.0586 12.6484C19.0329 12.9312 18.9749 13.223 18.8145 13.501C18.639 13.8048 18.3869 14.0579 18.083 14.2334C17.8049 14.394 17.5125 14.4519 17.2295 14.4775C17.0155 14.4969 16.7649 14.4993 16.4854 14.5C16.4849 14.5035 16.4848 14.5073 16.4844 14.5107C16.3816 15.2744 16.1586 15.9365 15.6299 16.4648C15.1014 16.9938 14.4396 17.2166 13.6758 17.3193C12.9334 17.4192 11.99 17.418 10.833 17.418H10.4697C10.348 17.614 10.1736 17.8403 9.9248 18.0615C9.29676 18.6197 8.27621 19.085 6.66602 19.085C6.36336 19.085 6.09016 18.9024 5.97363 18.623C5.85732 18.3438 5.92003 18.0216 6.13281 17.8066L6.13379 17.8057C6.13691 17.8024 6.14325 17.7959 6.15137 17.7871C6.16776 17.7694 6.19332 17.7409 6.22461 17.7041C6.28826 17.6292 6.37337 17.5221 6.45703 17.3955C6.46918 17.3771 6.47877 17.3572 6.49023 17.3389C5.71654 17.2529 5.05036 17.062 4.51465 16.6016L4.36816 16.4658C3.83933 15.9374 3.61738 15.2745 3.51465 14.5107C3.51418 14.5072 3.51319 14.5035 3.5127 14.5C3.2333 14.4993 2.98246 14.4969 2.76855 14.4775C2.48576 14.4519 2.19398 14.3939 1.91602 14.2334C1.61206 14.0579 1.35912 13.8049 1.18359 13.501C1.02323 13.2231 0.966092 12.9311 0.94043 12.6484C0.915715 12.3758 0.916016 12.0436 0.916016 11.668C0.916016 11.2923 0.915732 10.9601 0.94043 10.6875C0.966075 10.4048 1.02327 10.1129 1.18359 9.83496C1.3591 9.53098 1.61205 9.27807 1.91602 9.10254C2.194 8.94202 2.48573 8.88407 2.76855 8.8584C2.98246 8.839 3.23329 8.83567 3.5127 8.83496C3.51312 8.83175 3.51419 8.82839 3.51465 8.8252C3.61736 8.06144 3.83936 7.39855 4.36816 6.87012L4.57227 6.68652C5.06363 6.28796 5.65468 6.10652 6.32324 6.0166C7.06564 5.91679 8.00902 5.91797 9.16602 5.91797H9.25V4.77051C9.00396 4.67085 8.77731 4.52337 8.58594 4.33203C8.21092 3.95702 8.00006 3.44831 8 2.91797C8 2.38759 8.21094 1.87897 8.58594 1.50391C8.96101 1.12883 9.46957 0.917969 10 0.917969ZM9.16602 7.41797C7.96648 7.41797 7.14169 7.41965 6.52246 7.50293C5.99947 7.57331 5.71005 7.69244 5.50977 7.85742L5.42871 7.93066C5.22543 8.13377 5.08135 8.42709 5.00098 9.02441C4.91773 9.64361 4.91602 10.4686 4.91602 11.668C4.91602 12.8674 4.91771 13.6923 5.00098 14.3115C5.08138 14.9088 5.22539 15.2022 5.42871 15.4053H5.42969C5.73301 15.7089 6.21695 15.8648 7.52246 15.9043C7.92729 15.9168 8.24877 16.2483 8.24902 16.6533C8.24899 16.9096 8.19846 17.1546 8.125 17.3789C8.51391 17.2502 8.76667 17.0835 8.92773 16.9404C9.08879 16.7973 9.18086 16.661 9.22949 16.5713C9.25368 16.5266 9.26721 16.4931 9.27344 16.4766V16.4775C9.27315 16.4787 9.27278 16.4802 9.27246 16.4814V16.4834C9.35684 16.1511 9.65593 15.9181 9.99902 15.918H10.833C12.0322 15.918 12.8564 15.9162 13.4756 15.833C14.0732 15.7526 14.3662 15.6086 14.5693 15.4053H14.5703C14.7736 15.2022 14.9176 14.9088 14.998 14.3115C15.0813 13.6923 15.083 12.8674 15.083 11.668C15.083 10.4686 15.0813 9.64361 14.998 9.02441C14.9177 8.42706 14.7736 8.13378 14.5703 7.93066H14.5693C14.3662 7.72729 14.0733 7.58331 13.4756 7.50293C12.8564 7.41969 12.0322 7.41797 10.833 7.41797H9.16602ZM11.2832 13.1064C11.6085 12.912 12.0352 12.9909 12.2676 13.3008C12.516 13.6322 12.4486 14.1031 12.1172 14.3516L11.667 13.751L12.1162 14.3516L12.1152 14.3525C12.1145 14.3531 12.1131 14.3539 12.1123 14.3545C12.1105 14.3558 12.1085 14.3579 12.1064 14.3594C12.1023 14.3624 12.0971 14.3654 12.0918 14.3691C12.0811 14.3766 12.0681 14.3854 12.0527 14.3955C12.0217 14.4159 11.9809 14.4415 11.9307 14.4697C11.8302 14.5262 11.6911 14.5946 11.5137 14.6611C11.1575 14.7947 10.6521 14.9179 10.001 14.918C9.34964 14.918 8.84352 14.7947 8.4873 14.6611C8.31002 14.5946 8.17074 14.5262 8.07031 14.4697C8.02019 14.4415 7.97924 14.4158 7.94824 14.3955C7.93294 14.3855 7.91981 14.3766 7.90918 14.3691C7.90385 14.3654 7.89869 14.3624 7.89453 14.3594C7.89247 14.3579 7.89045 14.3558 7.88867 14.3545L7.88574 14.3516H7.88379C7.55236 14.1031 7.48496 13.6322 7.7334 13.3008C7.97957 12.9724 8.44353 12.9041 8.77441 13.1445L8.77148 13.1416C8.77516 13.144 8.78656 13.1514 8.80566 13.1621C8.84406 13.1837 8.91349 13.2192 9.01367 13.2568C9.21308 13.3316 9.54148 13.418 10.001 13.418C10.4603 13.4179 10.7879 13.3316 10.9873 13.2568C11.0876 13.2192 11.1569 13.1837 11.1953 13.1621C11.2142 13.1515 11.2256 13.1441 11.2295 13.1416C11.2285 13.1423 11.2266 13.144 11.2246 13.1455L11.2832 13.1064ZM3.42383 10.3359C3.19983 10.3372 3.03657 10.3405 2.9043 10.3525C2.72565 10.3688 2.67785 10.3945 2.66602 10.4014C2.59006 10.4452 2.52726 10.509 2.4834 10.585C2.47641 10.5971 2.44973 10.6453 2.43359 10.8232C2.41648 11.0124 2.41602 11.2649 2.41602 11.668C2.41602 12.0711 2.41646 12.3235 2.43359 12.5127C2.44981 12.6914 2.47658 12.7392 2.4834 12.751C2.52728 12.8269 2.59007 12.8907 2.66602 12.9346C2.67802 12.9415 2.72616 12.9672 2.9043 12.9834C3.03657 12.9954 3.19985 12.9977 3.42383 12.999C3.41702 12.5916 3.41602 12.1481 3.41602 11.668C3.41602 11.1875 3.417 10.7436 3.42383 10.3359ZM16.583 11.668C16.583 12.1481 16.581 12.5916 16.5742 12.999C16.7983 12.9977 16.9614 12.9954 17.0938 12.9834C17.2721 12.9672 17.321 12.9415 17.333 12.9346C17.4089 12.8907 17.4718 12.8269 17.5156 12.751C17.5225 12.739 17.5483 12.6908 17.5645 12.5127C17.5816 12.3235 17.583 12.0711 17.583 11.668C17.583 11.2648 17.5816 11.0124 17.5645 10.8232C17.5484 10.6458 17.5227 10.5973 17.5156 10.585C17.4718 10.509 17.4089 10.4452 17.333 10.4014C17.3212 10.3945 17.2726 10.3688 17.0938 10.3525C16.9614 10.3406 16.7983 10.3372 16.5742 10.3359C16.581 10.7436 16.583 11.1875 16.583 11.668ZM7.5 9.25098C7.9141 9.25098 8.24982 9.58691 8.25 10.001V10.835C8.24969 11.2489 7.91402 11.585 7.5 11.585C7.08598 11.585 6.75031 11.2489 6.75 10.835V10.001C6.75018 9.58691 7.0859 9.25098 7.5 9.25098ZM12.5 9.25098C12.9141 9.25098 13.2498 9.58691 13.25 10.001V10.835C13.2497 11.2489 12.914 11.585 12.5 11.585C12.086 11.585 11.7503 11.2489 11.75 10.835V10.001C11.7502 9.58691 12.0859 9.25098 12.5 9.25098ZM10 2.41797C9.86739 2.41797 9.74025 2.47069 9.64648 2.56445C9.55279 2.65821 9.5 2.78542 9.5 2.91797C9.50006 3.05049 9.55277 3.17777 9.64648 3.27148C9.74024 3.36518 9.86745 3.41797 10 3.41797C10.1326 3.41797 10.2598 3.36518 10.3535 3.27148C10.4472 3.17777 10.4999 3.05049 10.5 2.91797C10.5 2.78542 10.4472 2.65821 10.3535 2.56445C10.2597 2.47069 10.1326 2.41797 10 2.41797Z" color="current"/>
</svg>
