<svg width="20" height="20" viewBox="0 0 20 20" xmlns="http://www.w3.org/2000/svg">
    <path d="M9.99993 3.625C10.6518 3.62501 11.5446 3.66625 12.4286 3.78223C13.294 3.89576 14.2298 4.09066 14.9179 4.43262C15.6951 4.8189 16.1667 5.49298 16.4833 6.06543C16.6151 6.30374 16.7291 6.54483 16.8281 6.75391C16.8436 6.75295 16.8592 6.75 16.8749 6.75H17.4999C17.9141 6.75004 18.2499 7.08581 18.2499 7.5C18.2499 7.71333 18.1598 7.90372 18.0165 8.03906C18.1415 8.10706 18.2821 8.18201 18.3964 8.25098C18.5336 8.33375 18.7266 8.45776 18.8827 8.63379L18.9472 8.71289L18.9482 8.71484C19.0638 8.86935 19.1282 9.05079 19.1659 9.17188C19.2098 9.31245 19.2467 9.47163 19.2783 9.63574C19.3416 9.9656 19.3928 10.3654 19.4296 10.7783C19.5025 11.596 19.5264 12.5459 19.4579 13.2031C19.3933 13.8241 19.3009 14.3219 19.2226 14.6689C19.1834 14.8425 19.1476 14.979 19.121 15.0742C19.1077 15.1218 19.0969 15.1598 19.0888 15.1865C19.0848 15.1996 19.0806 15.2099 19.0781 15.2178C19.0768 15.2218 19.076 15.2259 19.0751 15.2285L19.0742 15.2314V15.2334L19.0732 15.2344C18.9929 15.4785 18.7946 15.6572 18.5546 15.7217C18.5071 16.0901 18.1937 16.3749 17.8124 16.375H15.6249C15.2506 16.375 14.941 16.1007 14.8847 15.7422C14.5829 15.7248 14.3527 15.6628 14.1464 15.6104C13.916 15.5518 13.6283 15.4831 13.1161 15.4346C11.9096 15.32 10.6828 15.2813 9.99993 15.2812C9.48844 15.2812 8.6928 15.3032 7.81732 15.3623L6.92181 15.4346C6.40981 15.4827 6.1239 15.5518 5.89446 15.6104C5.67896 15.6654 5.43796 15.7294 5.11419 15.7432C5.05744 16.1011 4.74879 16.3749 4.37493 16.375H2.18743C1.80602 16.375 1.49175 16.0902 1.44427 15.7217C1.20426 15.6572 1.00605 15.4785 0.925714 15.2344L0.924738 15.2334V15.2314L0.923761 15.2285C0.92291 15.2259 0.922095 15.2218 0.920831 15.2178C0.918326 15.2099 0.914073 15.1996 0.910089 15.1865C0.90195 15.1598 0.891148 15.1218 0.877863 15.0742C0.851299 14.979 0.815466 14.8425 0.7763 14.6689C0.697995 14.3219 0.605622 13.8241 0.540949 13.2031C0.472533 12.546 0.495449 11.5962 0.568292 10.7783C0.605089 10.3653 0.657044 9.9658 0.720636 9.63574C0.7523 9.47141 0.78884 9.31177 0.832941 9.1709C0.870935 9.04954 0.93611 8.86766 1.05267 8.71289L1.18548 8.56152C1.32636 8.42319 1.4849 8.32206 1.60247 8.25098C1.71695 8.18177 1.85718 8.10614 1.98235 8.03809C1.83959 7.90279 1.74993 7.71287 1.74993 7.5C1.74993 7.08579 2.08572 6.75 2.49993 6.75H3.12493C3.13974 6.75 3.15429 6.75306 3.16888 6.75391C3.26787 6.54478 3.38363 6.30404 3.51556 6.06543C3.83216 5.49288 4.30353 4.81906 5.08099 4.43164C5.77047 4.08809 6.70696 3.8942 7.5722 3.78125C8.45632 3.66586 9.34867 3.625 9.99993 3.625ZM9.99993 8.52344C7.45109 8.52344 5.73977 8.63998 4.67474 8.75391C4.14255 8.81084 3.77217 8.86643 3.53997 8.90723C3.48197 8.91742 3.43266 8.92745 3.39153 8.93555C3.19922 9.07317 3.01032 9.18292 2.85443 9.26953C2.64649 9.38506 2.51118 9.45419 2.37884 9.53418C2.32381 9.56744 2.2891 9.59226 2.26849 9.60742C2.26729 9.61108 2.26588 9.61498 2.26458 9.61914C2.24334 9.68699 2.21887 9.78719 2.19329 9.91992C2.14244 10.1839 2.09647 10.53 2.06243 10.9121C1.99363 11.6848 1.97799 12.5259 2.03216 13.0469C2.08456 13.5502 2.15882 13.9579 2.22161 14.25H4.997C5.16282 14.25 5.25589 14.2255 5.52337 14.1572C5.80198 14.0861 6.16784 13.9981 6.78021 13.9404C8.0406 13.8208 9.27578 13.7812 9.99993 13.7812C10.7233 13.7813 11.9974 13.8207 13.2577 13.9404C13.8699 13.9985 14.2375 14.0863 14.5165 14.1572C14.7854 14.2256 14.878 14.25 15.0409 14.25H17.7773C17.8401 13.9579 17.9143 13.5502 17.9667 13.0469C18.0209 12.526 18.0043 11.685 17.9355 10.9121C17.9014 10.5298 17.8564 10.1832 17.8056 9.91895C17.7801 9.78624 17.7555 9.68617 17.7343 9.61816C17.7331 9.61433 17.7315 9.61083 17.7304 9.60742C17.7098 9.59234 17.676 9.56771 17.622 9.53516C17.4895 9.45524 17.3538 9.38699 17.1454 9.27148C16.9884 9.18443 16.7981 9.07365 16.6044 8.93457C16.5641 8.92666 16.5161 8.9171 16.4599 8.90723C16.2277 8.86643 15.8573 8.81084 15.3251 8.75391C14.2601 8.63998 12.5488 8.52344 9.99993 8.52344ZM3.26263 10.0039C3.72394 9.9875 4.19257 10.0198 5.02337 10.2646C5.44726 10.3884 5.84511 10.5883 6.19817 10.8535C6.28713 10.923 6.25594 11.1107 6.14446 11.1309C5.45969 11.2112 4.77046 11.2516 4.08099 11.252C3.66732 11.252 3.24036 11.1344 3.16107 10.7656C3.12066 10.5531 3.11384 10.3356 3.14153 10.1211C3.14372 10.0902 3.15738 10.0607 3.17962 10.0391C3.20191 10.0175 3.23164 10.0051 3.26263 10.0039ZM16.7372 10.0039C16.7683 10.0051 16.7979 10.0175 16.8202 10.0391C16.8425 10.0607 16.8561 10.0901 16.8583 10.1211C16.886 10.3356 16.8792 10.5531 16.8388 10.7656C16.7595 11.1344 16.3325 11.252 15.9189 11.252C15.2294 11.2516 14.5402 11.2112 13.8554 11.1309C13.744 11.1106 13.7128 10.923 13.8017 10.8535C14.1548 10.5883 14.5526 10.3884 14.9765 10.2646C15.8073 10.0197 16.2759 9.9875 16.7372 10.0039ZM9.99993 5.125C9.4014 5.125 8.57512 5.16303 7.76653 5.26855C6.93886 5.3766 6.20732 5.54651 5.74993 5.77441C5.38071 5.95846 5.09495 6.31018 4.82903 6.79102C4.74488 6.9432 4.66819 7.09689 4.59271 7.25391C5.7215 7.13637 7.46513 7.02344 9.99993 7.02344C12.5341 7.02344 14.2774 7.1364 15.4062 7.25391C15.3309 7.09692 15.2549 6.94295 15.1708 6.79102C14.9046 6.30975 14.6187 5.9583 14.2509 5.77539C13.7938 5.54823 13.0613 5.37817 12.2333 5.26953C11.4244 5.16342 10.5979 5.12501 9.99993 5.125Z" color="current"/>
</svg>
