<svg width="20" height="20" viewBox="0 0 20 20" fill="current" xmlns="http://www.w3.org/2000/svg">
    <path d="M13.4141 16.5713C13.8164 16.5713 14.1425 16.8975 14.1426 17.2998C14.1426 17.7022 13.8164 18.0283 13.4141 18.0283H7.58594C7.18357 18.0283 6.85743 17.7022 6.85743 17.2998C6.85754 16.8975 7.18363 16.5713 7.58594 16.5713H13.4141ZM15.1631 2.00001C15.6947 2 16.1378 1.9989 16.4981 2.02833C16.8668 2.05848 17.2137 2.12392 17.541 2.29102L17.54 2.292C18.0423 2.54783 18.4512 2.95433 18.708 3.45801H18.709C18.8761 3.78544 18.9415 4.13239 18.9717 4.50098C19.0011 4.86112 19 5.30413 19 5.83497V11.2803C19 11.8109 19.0011 12.2535 18.9717 12.6133C18.9415 12.9816 18.876 13.3281 18.709 13.6553L18.708 13.6543C18.4518 14.1574 18.0431 14.5661 17.54 14.8223C17.213 14.9892 16.8672 15.0558 16.499 15.0859C16.1391 15.1154 15.6959 15.1143 15.165 15.1143H5.83497C5.30413 15.1143 4.86112 15.1154 4.50098 15.0859C4.17832 15.0595 3.87188 15.0058 3.58106 14.8809L3.45801 14.8232C2.95544 14.5669 2.54787 14.1571 2.292 13.6543C2.12504 13.3271 2.05847 12.9809 2.02833 12.6123C1.9989 12.252 2 11.809 2.00001 11.2773V5.83692C2 5.3053 1.9989 4.86232 2.02833 4.50196C2.05848 4.13308 2.12426 3.78651 2.29102 3.45899C2.5474 2.95557 2.95557 2.5474 3.45899 2.29102C3.78651 2.12426 4.13308 2.05848 4.50196 2.02833C4.86232 1.9989 5.3053 2 5.83692 2.00001H15.1631ZM5.83692 3.45704C5.28114 3.45704 4.90747 3.457 4.62012 3.48047C4.34147 3.50327 4.20821 3.54499 4.12012 3.58985C3.89114 3.70649 3.70649 3.89114 3.58985 4.12012C3.54499 4.20821 3.50327 4.34147 3.48047 4.62012C3.457 4.90747 3.45704 5.28114 3.45704 5.83692V11.2773C3.45704 11.8332 3.457 12.2069 3.48047 12.4941C3.49756 12.7029 3.52537 12.8298 3.55665 12.917L3.58887 12.9932L3.58985 12.9941C3.70616 13.2226 3.89173 13.4089 4.12012 13.5254C4.20743 13.57 4.34076 13.611 4.61915 13.6338C4.90616 13.6573 5.27991 13.6572 5.83497 13.6572H15.165C15.72 13.6572 16.0932 13.6573 16.3799 13.6338C16.6581 13.611 16.7915 13.57 16.8789 13.5254V13.5244C17.1077 13.408 17.2937 13.2219 17.4102 12.9932H17.4111C17.4558 12.9057 17.4968 12.7723 17.5195 12.4941C17.543 12.2075 17.543 11.835 17.543 11.2803V5.83497C17.543 5.27991 17.543 4.90616 17.5195 4.61915C17.4967 4.34076 17.4557 4.20743 17.4111 4.12012H17.4102C17.2939 3.8919 17.1087 3.70688 16.8789 3.58985V3.58887C16.7917 3.54432 16.6584 3.50327 16.3799 3.48047C16.0927 3.457 15.7189 3.45704 15.1631 3.45704H5.83692Z"/>
</svg>
