<svg width="20" height="20" viewBox="0 0 20 20" xmlns="http://www.w3.org/2000/svg">
    <path d="M12.6885 12.2617L12.6865 13.0684L12.6846 13.876H3.80762V14.1396C3.80763 14.3484 3.87288 14.5524 3.99414 14.7227L4.0498 14.793V14.7939C4.85505 15.7378 6.17598 16.2979 8.24512 16.2979C10.3598 16.2978 11.822 15.773 12.6113 14.8516L13.2246 15.377L13.8379 15.9014C12.5978 17.3494 10.5523 17.9121 8.24512 17.9121C5.89557 17.9121 4.04104 17.2688 2.82324 15.8418C2.4179 15.3678 2.19239 14.7646 2.19238 14.1396V13.6738C2.1924 13.2992 2.34151 12.9397 2.60645 12.6748L2.70996 12.5811C2.96136 12.3751 3.27764 12.2617 3.60547 12.2617H5.00195C5.84078 12.2617 6.96085 12.2608 8.08594 12.2607C10.3315 12.2607 12.6004 12.2615 12.6885 12.2617ZM13.8477 7.70508C14.9191 6.71502 16.5918 6.77324 17.583 7.83496C18.5733 8.89651 18.5088 10.5596 17.4385 11.5498C17.243 11.7305 16.7553 12.0967 16.3721 12.1182L16.3516 12.6377C16.335 13.0687 16.5156 12.903 16.7725 12.998C16.7892 13.0016 17.2908 13.1109 17.3564 13.623C17.3881 13.9272 17.2424 14.5282 16.4092 14.499L16.4023 14.6719C16.4114 14.6729 16.9656 14.7397 17.0322 15.2559C17.0637 15.5599 16.8694 16.0723 16.2627 16.0518L16.2383 16.6572C16.2221 17.0714 15.8403 17.1913 15.6514 17.1992L15.1299 17.1816C14.6442 17.1643 14.5373 16.7565 14.5449 16.5547L14.7207 12.0615C14.6984 12.0554 14.1527 11.9023 13.7031 11.4209C12.7122 10.3595 12.7765 8.69547 13.8477 7.70508ZM8.14844 2.19141C9.34996 2.19141 10.5029 2.66895 11.3525 3.51855C12.202 4.36805 12.6796 5.52034 12.6797 6.72168C12.68 7.92353 12.2031 9.07672 11.3545 9.92773C10.5057 10.7788 9.35333 11.2588 8.15137 11.2617C8.1376 11.2617 8.12395 11.2604 8.11035 11.2598C6.9217 11.2476 5.78466 10.7699 4.94434 9.92773C4.09537 9.0769 3.61816 7.92362 3.61816 6.72168C3.61828 5.52032 4.09582 4.36805 4.94531 3.51855C5.79481 2.66906 6.94708 2.19152 8.14844 2.19141ZM15.6777 8.71094C15.557 8.70678 15.4364 8.7265 15.3232 8.76855C15.2099 8.81072 15.1051 8.87491 15.0166 8.95703C14.9281 9.0386 14.8572 9.13711 14.8066 9.24609C14.756 9.35548 14.7264 9.4744 14.7217 9.59473C14.717 9.7149 14.7365 9.83542 14.7783 9.94824C14.8202 10.0608 14.8839 10.1648 14.9658 10.2529C15.1324 10.4306 15.3643 10.5354 15.6084 10.5439C15.8523 10.5523 16.0909 10.4643 16.2695 10.2988C16.4486 10.1337 16.5549 9.90384 16.5645 9.66113C16.5739 9.41812 16.4853 9.17953 16.3193 9.00098C16.237 8.91339 16.138 8.84273 16.0283 8.79297C15.9182 8.74304 15.7986 8.71517 15.6777 8.71094ZM8.14844 3.80664C7.37526 3.80676 6.63364 4.11343 6.08691 4.66016C5.54019 5.20688 5.23352 5.9485 5.2334 6.72168C5.2334 7.49592 5.54012 8.23897 6.08691 8.78711C6.63384 9.33522 7.37609 9.64475 8.15039 9.64648C8.15292 9.64649 8.15568 9.64646 8.1582 9.64648C8.92875 9.6419 9.66655 9.33382 10.2109 8.78809C10.7577 8.23986 11.0646 7.49692 11.0645 6.72266V6.72168C11.0643 5.94852 10.7576 5.20688 10.2109 4.66016C9.6641 4.11332 8.92178 3.80664 8.14844 3.80664Z" color="current"/>
</svg>
