<svg width="20" height="20" viewBox="0 0 20 20" fill="current" xmlns="http://www.w3.org/2000/svg">
<path d="M12.3135 12C12.7608 12.0004 13.1897 12.1787 13.5059 12.4951C13.822 12.8115 14 13.2403 14 13.6875V14.1182C14 14.7884 13.76 15.4372 13.3252 15.9463L13.0967 16.1963C11.9211 17.4034 10.2092 18 7.99707 18C5.78523 17.9999 4.07438 17.4035 2.90137 16.1953L2.67383 15.9453C2.29367 15.5001 2.06257 14.9491 2.01074 14.3701L2 14.1201V13.6865C2.0002 13.2393 2.17787 12.8104 2.49414 12.4941C2.81037 12.178 3.23932 12.0003 3.68652 12H12.3135ZM3.68652 13.625C3.66991 13.625 3.65332 13.6318 3.6416 13.6436C3.63008 13.6552 3.62402 13.6711 3.62402 13.6875V14.1201C3.62406 14.4014 3.72449 14.6747 3.9082 14.8896L3.90918 14.8906C4.72124 15.8423 6.03132 16.375 7.99707 16.375C9.96378 16.3749 11.2737 15.8422 12.0889 14.8906L12.1543 14.8076C12.297 14.6072 12.3741 14.3659 12.374 14.1182V13.6875L12.3691 13.6631C12.366 13.6558 12.3612 13.6493 12.3555 13.6436C12.3495 13.6376 12.3431 13.6329 12.3359 13.6299L12.3125 13.625H3.68652ZM16.9375 10.9873C17.2097 10.9849 17.4762 11.0526 17.7139 11.1816C17.9547 11.3125 18.1568 11.5015 18.3066 11.7266C18.4563 11.9515 18.551 12.2087 18.5859 12.4746C18.6208 12.7406 18.5958 13.0133 18.5117 13.2686C18.5047 13.2897 18.4962 13.3106 18.4873 13.3311C18.0132 14.4258 17.2594 15.3632 16.3047 16.0283C15.965 16.2648 15.4976 16.1812 15.2607 15.8418C15.024 15.502 15.1075 15.0337 15.4473 14.7969C16.1517 14.306 16.722 13.6083 17.0908 12.7773C17.0992 12.7431 17.1034 12.7065 17.0986 12.6699C17.0928 12.6257 17.0772 12.5872 17.0576 12.5576C17.0382 12.5285 17.0165 12.51 16.998 12.5C16.9801 12.4903 16.9639 12.4871 16.9502 12.4873H15.2861C14.872 12.4873 14.5363 12.1514 14.5361 11.7373C14.5363 11.3232 14.872 10.9873 15.2861 10.9873H16.9375ZM7.7832 1.89453C8.89946 1.89453 9.97041 2.33769 10.7598 3.12695C11.549 3.91627 11.9921 4.9873 11.9922 6.10352L11.9873 6.3125C11.9359 7.353 11.5008 8.34087 10.7617 9.08203C9.97314 9.87263 8.90278 10.3186 7.78613 10.3213C7.77306 10.3213 7.75998 10.32 7.74707 10.3193C6.64293 10.3079 5.58628 9.86428 4.80566 9.08203C4.01705 8.29159 3.57428 7.22008 3.57422 6.10352C3.57427 4.9873 4.01739 3.91627 4.80664 3.12695C5.59597 2.33762 6.66693 1.89458 7.7832 1.89453ZM12.5547 2.61035C13.055 2.61021 13.5506 2.70876 14.0127 2.90039C14.4749 3.09211 14.8956 3.37327 15.249 3.72754C15.6022 4.08166 15.8817 4.50243 16.0723 4.96484C16.2625 5.42681 16.3604 5.92228 16.3594 6.42188L16.3545 6.60938C16.333 7.04484 16.2366 7.47428 16.0693 7.87793C15.8782 8.33911 15.5981 8.75833 15.2451 9.11133C14.8919 9.46446 14.4722 9.74547 14.0107 9.93652C13.5492 10.1276 13.0542 10.2257 12.5547 10.2256C12.1408 10.2254 11.8049 9.88944 11.8047 9.47559C11.8048 9.06137 12.1415 8.72547 12.5557 8.72559C12.858 8.72561 13.1572 8.6654 13.4365 8.5498C13.716 8.43411 13.9706 8.26462 14.1846 8.05078C14.3983 7.83702 14.5678 7.58298 14.6836 7.30371C14.7994 7.02429 14.8593 6.72432 14.8594 6.42188V6.41992C14.8602 6.11696 14.8009 5.81627 14.6855 5.53613C14.5702 5.2561 14.4004 5.00156 14.1865 4.78711C13.9725 4.5726 13.7183 4.40224 13.4385 4.28613C13.1587 4.17008 12.8586 4.11032 12.5557 4.11035C12.1415 4.11047 11.8049 3.77445 11.8047 3.36035C11.8047 2.94629 12.1406 2.61055 12.5547 2.61035ZM7.7832 3.39453C7.06475 3.39458 6.37619 3.68045 5.86816 4.18848C5.36022 4.69649 5.07427 5.38512 5.07422 6.10352C5.07428 6.82291 5.36002 7.51321 5.86816 8.02246C6.37635 8.53163 7.06577 8.81876 7.78516 8.82031C7.78776 8.82032 7.79037 8.82028 7.79297 8.82031C8.50843 8.81581 9.19367 8.5301 9.69922 8.02344C10.2072 7.51407 10.4923 6.82291 10.4922 6.10352C10.4921 5.38527 10.207 4.69646 9.69922 4.18848C9.19115 3.68041 8.50172 3.39453 7.7832 3.39453Z"/>
</svg>
