<svg width="20" height="20" viewBox="0 0 20 20" fill="current" xmlns="http://www.w3.org/2000/svg">
    <path d="M10.833 1.75C11.4739 1.75 12.0888 2.00479 12.542 2.45801C12.8133 2.72928 13.0119 3.05897 13.1289 3.41699H14.166C14.807 3.41699 15.4218 3.67179 15.875 4.125C16.328 4.57819 16.583 5.19318 16.583 5.83398V15.834C16.5829 16.4747 16.3281 17.0899 15.875 17.543C15.4218 17.996 14.8068 18.25 14.166 18.25H5.83301C5.19228 18.25 4.57719 17.9959 4.12402 17.543C3.67094 17.0899 3.41617 16.4747 3.41602 15.834V5.83398C3.41602 5.1931 3.67089 4.5782 4.12402 4.125C4.57724 3.67179 5.19207 3.41699 5.83301 3.41699H6.87109C6.9881 3.05897 7.18673 2.72928 7.45801 2.45801C7.91122 2.00479 8.52605 1.75 9.16699 1.75H10.833ZM5.83301 4.91699C5.58989 4.91699 5.35648 5.01364 5.18457 5.18555C5.01274 5.35744 4.91602 5.59093 4.91602 5.83398V15.834C4.91617 16.0768 5.0129 16.3097 5.18457 16.4814C5.35647 16.6533 5.58995 16.75 5.83301 16.75H14.166C14.4091 16.75 14.6426 16.6533 14.8145 16.4814C14.986 16.3097 15.0829 16.0767 15.083 15.834V5.83398C15.083 5.591 14.9862 5.35743 14.8145 5.18555C14.6425 5.01364 14.4091 4.91699 14.166 4.91699H13.1289C13.0119 5.27503 12.8132 5.60475 12.542 5.87598C12.0888 6.32899 11.4738 6.58301 10.833 6.58301H9.16699C8.52621 6.58301 7.91119 6.32899 7.45801 5.87598C7.18678 5.60475 6.98811 5.27503 6.87109 4.91699H5.83301ZM10.833 11.75C11.2472 11.75 11.583 12.0858 11.583 12.5C11.583 12.9142 11.2472 13.25 10.833 13.25H7.5C7.08579 13.25 6.75 12.9142 6.75 12.5C6.75 12.0858 7.08579 11.75 7.5 11.75H10.833ZM11.667 8.41699C12.0811 8.41717 12.417 8.75289 12.417 9.16699C12.4169 9.58099 12.081 9.91682 11.667 9.91699H7.5C7.08587 9.91699 6.75013 9.58109 6.75 9.16699C6.75 8.75278 7.08579 8.41699 7.5 8.41699H11.667ZM9.16699 3.25C8.92388 3.25 8.69046 3.34665 8.51855 3.51855C8.34665 3.69046 8.25 3.92388 8.25 4.16699C8.25009 4.40991 8.34682 4.64264 8.51855 4.81445C8.69046 4.98636 8.92388 5.08301 9.16699 5.08301H10.833C11.0761 5.08301 11.3095 4.98636 11.4814 4.81445C11.6511 4.64471 11.7466 4.41552 11.749 4.17578V4.15723C11.7465 3.91764 11.651 3.68816 11.4814 3.51855C11.3095 3.34665 11.0761 3.25 10.833 3.25H9.16699Z"/>
</svg>
