<svg width="20" height="20" viewBox="0 0 20 20" fill="current" xmlns="http://www.w3.org/2000/svg">
    <path d="M14.9639 11.4287C16.9164 11.4287 18.4998 13.0113 18.5 14.9639C18.5 16.9166 16.9166 18.5 14.9639 18.5C13.2536 18.4998 11.8267 17.2854 11.499 15.6719H3.65039C3.25985 15.6719 2.94238 15.3544 2.94238 14.9639C2.94261 14.5735 3.25999 14.2568 3.65039 14.2568H11.499C11.8267 12.6432 13.2536 11.4289 14.9639 11.4287ZM14.9639 12.8428C13.7926 12.843 12.843 13.7926 12.8428 14.9639C12.8428 16.1354 13.7924 17.0857 14.9639 17.0859C16.1355 17.0859 17.0859 16.1355 17.0859 14.9639C17.0857 13.7924 16.1354 12.8428 14.9639 12.8428ZM5.53613 2C7.24636 2.0002 8.67326 3.21457 9.00098 4.82812H16.8496C17.2402 4.82812 17.5576 5.14559 17.5576 5.53613C17.5574 5.92648 17.24 6.24316 16.8496 6.24316H9.00098C8.67331 7.85678 7.24641 9.07109 5.53613 9.07129C3.58355 9.07129 2.00023 7.48866 2 5.53613C2 3.58341 3.58341 2 5.53613 2ZM5.53613 3.41406C4.3645 3.41406 3.41406 4.3645 3.41406 5.53613C3.41429 6.70757 4.36464 7.65723 5.53613 7.65723C6.70743 7.657 7.657 6.70743 7.65723 5.53613C7.65723 4.36464 6.70757 3.41429 5.53613 3.41406Z"/>
</svg>
