<svg width="21" height="20" viewBox="0 0 21 20" fill="current" xmlns="http://www.w3.org/2000/svg">
    <path d="M12.2929 2C13.9441 2 15.2497 1.9987 16.2691 2.1358C17.3073 2.27546 18.1478 2.56957 18.8103 3.23256C19.4726 3.89546 19.7673 4.73632 19.9071 5.77467C20.0442 6.79386 20.0429 8.09888 20.0429 9.75C20.0429 11.4012 20.0442 12.7069 19.9071 13.7262C19.7674 14.7644 19.4733 15.6049 18.8103 16.2674C18.1474 16.9298 17.3065 17.2244 16.2682 17.3642C15.249 17.5014 13.944 17.5 12.2929 17.5H8.75C7.09877 17.5 5.79314 17.5013 4.7738 17.3642C3.73559 17.2245 2.8951 16.9304 2.23256 16.2674C1.57023 15.6045 1.27559 14.7637 1.1358 13.7253C0.998633 12.7061 1 11.4011 1 9.75C1 8.09877 0.998702 6.79314 1.1358 5.7738C1.27546 4.73559 1.56957 3.8951 2.23256 3.23256C2.89546 2.57023 3.73632 2.27559 4.77467 2.1358C5.79386 1.99863 7.09888 2 8.75 2H12.2929ZM8.75 3.32857C7.06153 3.32857 5.862 3.33066 4.95198 3.45313C4.06118 3.57305 3.54704 3.79719 3.1719 4.1719C2.79704 4.54645 2.57211 5.06003 2.45226 5.95112C2.32984 6.86131 2.32857 8.0612 2.32857 9.75C2.32857 11.4385 2.33065 12.638 2.45313 13.548C2.57305 14.4388 2.79719 14.953 3.1719 15.3281C3.54645 15.703 4.06003 15.9279 4.95112 16.0477C5.86131 16.1702 7.0612 16.1714 8.75 16.1714H12.2929C13.9813 16.1714 15.1809 16.1693 16.0909 16.0469C16.9817 15.9269 17.4958 15.7028 17.871 15.3281C18.2458 14.9535 18.4707 14.44 18.5906 13.5489C18.713 12.6387 18.7143 11.4388 18.7143 9.75C18.7143 8.06153 18.7122 6.862 18.5897 5.95198C18.4698 5.06118 18.2457 4.54704 17.871 4.1719C17.4964 3.79704 16.9828 3.57211 16.0917 3.45226C15.1815 3.32984 13.9817 3.32857 12.2929 3.32857H8.75ZM7.86429 9.97143C8.77017 9.97143 9.47789 10.0217 10.0301 10.1211C10.5773 10.2195 11.0188 10.3744 11.3535 10.6167C12.1053 11.1608 12.0714 11.9641 12.0714 12.4071C12.0714 13.2835 11.3786 13.8979 10.6667 14.2538C9.91529 14.6295 8.92368 14.8429 7.86429 14.8429C6.80489 14.8429 5.81328 14.6295 5.06183 14.2538C4.34995 13.8979 3.65714 13.2835 3.65714 12.4071C3.65714 11.9641 3.62331 11.1608 4.37506 10.6167C4.70982 10.3744 5.15128 10.2195 5.69844 10.1211C6.25068 10.0217 6.9584 9.97143 7.86429 9.97143ZM7.86429 11.3C6.99874 11.3 6.37789 11.349 5.93371 11.4289C5.48445 11.5097 5.2616 11.6145 5.15352 11.6927C5.01977 11.7896 4.98571 11.8718 4.98571 12.4071C4.98571 12.5095 5.08588 12.7803 5.65605 13.0654C6.18668 13.3307 6.96625 13.5143 7.86429 13.5143C8.76232 13.5143 9.54189 13.3307 10.0725 13.0654C10.6427 12.7803 10.7429 12.5095 10.7429 12.4071C10.7429 11.8718 10.7088 11.7896 10.5751 11.6927C10.467 11.6145 10.2441 11.5097 9.79487 11.4289C9.35068 11.349 8.72983 11.3 7.86429 11.3ZM16.7214 11.7429C17.0883 11.7429 17.3857 12.0403 17.3857 12.4071C17.3857 12.774 17.0883 13.0714 16.7214 13.0714H14.0643C13.6974 13.0714 13.4 12.774 13.4 12.4071C13.4 12.0403 13.6974 11.7429 14.0643 11.7429H16.7214ZM16.7214 9.08571C17.0883 9.08571 17.3857 9.38313 17.3857 9.75C17.3857 10.1169 17.0883 10.4143 16.7214 10.4143H13.1786C12.8117 10.4143 12.5143 10.1169 12.5143 9.75C12.5143 9.38313 12.8117 9.08571 13.1786 9.08571H16.7214ZM7.86429 4.65714C9.20949 4.65714 10.3 5.74765 10.3 7.09286C10.3 8.43806 9.20949 9.52857 7.86429 9.52857C6.51908 9.52857 5.42857 8.43806 5.42857 7.09286C5.42857 5.74765 6.51908 4.65714 7.86429 4.65714ZM7.86429 5.98571C7.25283 5.98571 6.75714 6.4814 6.75714 7.09286C6.75714 7.70431 7.25283 8.2 7.86429 8.2C8.47574 8.2 8.97143 7.70432 8.97143 7.09286C8.97143 6.4814 8.47574 5.98571 7.86429 5.98571ZM16.7214 6.42857C17.0883 6.42857 17.3857 6.72598 17.3857 7.09286C17.3857 7.45973 17.0883 7.75714 16.7214 7.75714H12.2929C11.926 7.75714 11.6286 7.45973 11.6286 7.09286C11.6286 6.72598 11.926 6.42857 12.2929 6.42857H16.7214Z"/>
</svg>
