<svg width="20" height="20" viewBox="0 0 20 20" xmlns="http://www.w3.org/2000/svg">
    <path d="M11.3721 2.27832C11.9203 2.27581 12.4527 2.46092 12.8799 2.80469C13.2548 3.10646 13.529 3.51317 13.668 3.9707L13.7188 4.16992L13.7197 4.17578C13.7585 4.36599 13.9316 4.50073 14.1006 4.50098H14.1172L14.1328 4.50195C15.2671 4.55125 16.1642 4.69044 16.918 5.18555H16.917C17.3865 5.493 17.7915 5.88969 18.1074 6.35352C18.5041 6.93623 18.6753 7.60121 18.7568 8.3877C18.837 9.1617 18.8359 10.1319 18.8359 11.3506C18.8359 12.5693 18.837 13.5394 18.7568 14.3135C18.6753 15.1 18.5041 15.7649 18.1074 16.3477C17.7915 16.8114 17.3864 17.2082 16.917 17.5156C16.3274 17.9021 15.6564 18.0698 14.8594 18.1494C14.0735 18.2278 13.0879 18.2266 11.8457 18.2266H8.26563C7.02336 18.2266 6.03784 18.2279 5.25195 18.1494C4.45478 18.0698 3.783 17.9032 3.19336 17.5166V17.5156C2.72278 17.2067 2.31871 16.8101 2.00391 16.3477C1.60732 15.7646 1.43602 15.1001 1.35449 14.3135C1.2743 13.5396 1.27539 12.5697 1.27539 11.3506C1.27539 10.1315 1.27419 9.16167 1.35449 8.3877C1.43611 7.60105 1.60767 6.93629 2.00488 6.35352L2.12695 6.18262C2.42212 5.79177 2.78386 5.45368 3.19434 5.18457C3.94814 4.69131 4.84413 4.55128 5.97852 4.50195L5.99414 4.50098H6.00977C6.17898 4.50098 6.35291 4.36528 6.3916 4.1748C6.61861 3.06258 7.60785 2.27735 8.73926 2.27734H11.3721V2.27832ZM8.73926 3.72656C8.27936 3.72657 7.89854 4.04456 7.8125 4.46387C7.64532 5.28679 6.91963 5.93428 6.04102 5.94922L6.04199 5.9502C4.95338 5.99753 4.39596 6.13157 3.98828 6.39844L3.98731 6.39746C3.75513 6.54976 3.54747 6.7359 3.37012 6.94824L3.20313 7.16992C2.99642 7.4731 2.86629 7.8683 2.79688 8.53711C2.72614 9.2189 2.72461 10.1008 2.72461 11.3506C2.72461 12.6005 2.72623 13.4823 2.79688 14.1641C2.86619 14.8329 2.99644 15.2284 3.20313 15.5322C3.41029 15.8365 3.67695 16.0987 3.98926 16.3037H3.98828C4.3016 16.5091 4.71076 16.6386 5.39649 16.707C6.09357 16.7766 6.99399 16.7773 8.26563 16.7773H11.8457C13.1174 16.7773 14.0178 16.7766 14.7148 16.707C15.4006 16.6386 15.8097 16.5091 16.123 16.3037L16.3467 16.1406C16.5624 15.9669 16.7517 15.762 16.9082 15.5322C17.1147 15.229 17.2451 14.8333 17.3145 14.1641C17.3851 13.4821 17.3857 12.6001 17.3857 11.3506C17.3857 10.1012 17.3851 9.21907 17.3145 8.53711C17.2451 7.8682 17.1146 7.47308 16.9082 7.16992C16.6996 6.86369 16.433 6.60146 16.123 6.39844L16.1221 6.39746C15.716 6.1307 15.1597 5.99757 14.0693 5.9502V5.94922C13.193 5.93395 12.469 5.28983 12.2998 4.46973C12.2549 4.2587 12.1388 4.06986 11.9707 3.93457C11.8025 3.79921 11.5929 3.72517 11.377 3.72656H8.73926ZM10.0557 7.91699C11.7906 7.91717 13.1973 9.32361 13.1973 11.0586C13.1968 12.7932 11.7903 14.2 10.0557 14.2002C8.32084 14.2002 6.9145 12.7933 6.91406 11.0586C6.91406 9.3235 8.32057 7.91699 10.0557 7.91699ZM10.0557 9.36621C9.12138 9.36621 8.36328 10.1243 8.36328 11.0586C8.36372 11.9925 9.12165 12.75 10.0557 12.75C10.9895 12.7498 11.7466 11.9924 11.7471 11.0586C11.7471 10.1244 10.9898 9.36639 10.0557 9.36621ZM15.6943 7.91699C16.0947 7.91705 16.4189 8.24123 16.4189 8.6416C16.4187 9.04175 16.0945 9.36615 15.6943 9.36621H14.8887C14.4884 9.36621 14.1643 9.04178 14.1641 8.6416C14.1641 8.2412 14.4883 7.91699 14.8887 7.91699H15.6943Z" color="current"/>
</svg>
