<svg width="20" height="20" viewBox="0 0 20 20" xmlns="http://www.w3.org/2000/svg">
    <path d="M14.0276 1.25C14.2744 1.25008 14.5059 1.37186 14.6458 1.5752C14.7855 1.77854 14.817 2.03811 14.7288 2.26856L13.096 6.53225H14.6458L14.6663 6.53322C14.96 6.5415 15.2181 6.66008 15.4153 6.8301L15.4221 6.83596C15.5752 6.97124 15.6864 7.13679 15.762 7.30764L15.8254 7.47952L15.8264 7.48147C15.8975 7.71553 15.912 7.96698 15.8723 8.20511L15.8704 8.21487C15.8289 8.44513 15.7364 8.68088 15.5794 8.88089C15.5753 8.88602 15.5708 8.89149 15.5667 8.89651L6.64868 19.6456C6.42783 19.9116 6.05324 19.9924 5.74243 19.8409C5.43167 19.6891 5.26519 19.3438 5.33911 19.0059L7.16235 10.6739H5.4895C5.24845 10.6695 5.0285 10.5883 4.84594 10.4639L4.84497 10.4649C4.65308 10.3347 4.516 10.1581 4.42309 9.97757L4.42212 9.97855C4.41993 9.9744 4.41743 9.97002 4.41528 9.96585L4.41626 9.96488C4.32209 9.78144 4.27002 9.58212 4.25512 9.38675C4.23986 9.18631 4.26213 8.97951 4.32446 8.78421L4.32544 8.78128L6.59985 1.76856C6.70018 1.45942 6.98871 1.25 7.31372 1.25H14.0276ZM5.77466 9.17386H8.09399C8.32082 9.17396 8.53568 9.27652 8.67798 9.45316C8.82026 9.63001 8.87492 9.86227 8.82642 10.084L7.46314 16.3145L14.3342 8.03225H12.0061C11.7594 8.03225 11.5279 7.91114 11.3879 7.70803C11.2481 7.50475 11.2169 7.24514 11.3049 7.01467L12.9377 2.75001H7.85864L5.77466 9.17386Z" color="current"/>
</svg>
